<?xml version="1.0" encoding="utf-8"?>
<!-- Generator: Adobe Illustrator 27.5.0, SVG Export Plug-In . SVG Version: 6.00 Build 0)  -->
<svg version="1.1" xmlns="http://www.w3.org/2000/svg" xmlns:xlink="http://www.w3.org/1999/xlink" x="0px" y="0px"
	 viewBox="0 0 500 500" style="enable-background:new 0 0 500 500;" xml:space="preserve">
<g id="BACKGROUND">
	<rect style="fill:#FFFFFF;" width="500" height="500"/>
</g>
<g id="OBJECT">
	<g>
		<g>
			
				<circle style="fill:none;stroke:#390634;stroke-linecap:round;stroke-linejoin:round;stroke-dasharray:5.07,5.07;" cx="392.868" cy="377.325" r="37.128"/>
		</g>
		
			<ellipse transform="matrix(0.2271 -0.9739 0.9739 0.2271 -313.6158 403.5947)" style="fill:#4F264F;" cx="97.461" cy="399.378" rx="11.638" ry="11.638"/>
		<path style="fill:none;stroke:#EFDEBD;stroke-width:0.5;stroke-miterlimit:10;" d="M105.337,399.71
			c0,4.393-3.561,7.954-7.954,7.954c-4.393,0-7.953-3.561-7.953-7.954c0-4.393,3.561-7.954,7.953-7.954
			C101.776,391.756,105.337,395.317,105.337,399.71z"/>
		<circle style="fill:#4F264F;" cx="383.629" cy="319.755" r="7.634"/>
		
			<ellipse transform="matrix(0.9227 -0.3854 0.3854 0.9227 -56.1477 93.0798)" style="fill:#4F264F;" cx="204.093" cy="186.588" rx="11.704" ry="11.704"/>
		<circle style="fill:#4F264F;" cx="341.612" cy="130.013" r="7.775"/>
		<path style="fill:#CB4F24;" d="M332.085,65.373h-11.024c-2.127,0-3.852-1.724-3.852-3.852V50.497c0-2.127,1.724-3.852,3.852-3.852
			h11.025c2.127,0,3.852,1.724,3.852,3.852v11.024C335.937,63.649,334.212,65.373,332.085,65.373z"/>
		<path style="fill:#B29B8B;" d="M443.91,325.93v28.53c0,0.94-0.21,1.84-0.61,2.64c-0.97,2.09-3.1,3.54-5.57,3.54h-24.7
			c-3.42,0-6.18-2.77-6.18-6.18v-28.53c0-1.08,0.27-2.09,0.76-2.96c1.04-1.91,3.08-3.21,5.42-3.21h24.7
			C441.15,319.76,443.91,322.52,443.91,325.93z"/>
		<path style="fill:#A08A7C;" d="M443.3,357.1c-0.97,2.09-3.1,3.54-5.57,3.54h-24.7c-3.42,0-6.18-2.77-6.18-6.18v-28.53
			c0-1.08,0.27-2.09,0.76-2.96L443.3,357.1z"/>
		<g>
			
				<ellipse transform="matrix(0.7071 -0.7071 0.7071 0.7071 -75.2508 159.7655)" style="fill:none;stroke:#390634;stroke-linecap:round;stroke-linejoin:round;stroke-dasharray:5.0871,5.0871;" cx="155.229" cy="170.719" rx="30.774" ry="30.774"/>
		</g>
		
			<circle style="fill:none;stroke:#B29B8B;stroke-linecap:round;stroke-linejoin:round;stroke-miterlimit:10;stroke-dasharray:5;" cx="94.27" cy="355.434" r="18.424"/>
		<g>
			<rect x="93.549" y="87.922" style="fill:#B29B8B;" width="6.045" height="40.06"/>
			<rect x="104.391" y="97.155" style="fill:#B29B8B;" width="6.045" height="30.827"/>
			<rect x="114.812" y="108.804" style="fill:#B29B8B;" width="6.045" height="19.179"/>
			<rect x="124.454" y="114.438" style="fill:#B29B8B;" width="6.045" height="13.544"/>
			<path style="fill:#CB4F24;" d="M131.143,131.947H90.299c-0.481-1.448-1.832-2.5-3.442-2.5c-2.012,0-3.643,1.631-3.643,3.643
				s1.631,3.643,3.643,3.643c1.61,0,2.96-1.052,3.442-2.5h40.844V131.947z"/>
		</g>
		<polyline style="fill:none;stroke:#EFDEBD;stroke-linecap:round;stroke-linejoin:round;stroke-miterlimit:10;" points="
			409.653,325.286 425.854,340.197 440.295,325.286 		"/>
		
			<line style="fill:none;stroke:#EFDEBD;stroke-linecap:round;stroke-linejoin:round;stroke-miterlimit:10;" x1="409.653" y1="355.286" x2="422" y2="341.143"/>
		
			<line style="fill:none;stroke:#EFDEBD;stroke-linecap:round;stroke-linejoin:round;stroke-miterlimit:10;" x1="441.359" y1="355.286" x2="429.012" y2="341.143"/>
		<path style="fill:none;stroke:#B29B8B;stroke-linecap:round;stroke-linejoin:round;stroke-miterlimit:10;" d="M123.054,387.411
			c0,2.061-1.671,3.732-3.732,3.732c-2.061,0-3.732-1.671-3.732-3.732c0-2.061,1.671-3.732,3.732-3.732
			C121.383,383.678,123.054,385.349,123.054,387.411z"/>
		
			<circle style="fill:none;stroke:#B29B8B;stroke-linecap:round;stroke-linejoin:round;stroke-miterlimit:10;" cx="227.865" cy="182.223" r="4.365"/>
		
			<rect x="317.821" y="111.655" style="fill:none;stroke:#B29B8B;stroke-linecap:round;stroke-linejoin:round;stroke-miterlimit:10;" width="8.163" height="8.163"/>
		<rect x="53.227" y="294.688" style="fill:#CB4F24;" width="16.026" height="16.026"/>
		<path style="fill:none;stroke:#B29B8B;stroke-linecap:round;stroke-linejoin:round;stroke-miterlimit:10;" d="M411.342,299.03
			c0,1.845-1.495,3.34-3.34,3.34s-3.34-1.495-3.34-3.34c0-1.845,1.495-3.34,3.34-3.34S411.342,297.186,411.342,299.03z"/>
		
			<ellipse transform="matrix(0.1598 -0.9872 0.9872 0.1598 -12.7087 358.2451)" style="fill:none;stroke:#EFDEBD;stroke-width:0.5;stroke-miterlimit:10;" cx="204.093" cy="186.588" rx="7.954" ry="7.953"/>
		<circle style="fill:none;stroke:#EFDEBD;stroke-width:0.5;stroke-miterlimit:10;" cx="341.546" cy="130.013" r="5.147"/>
		
			<rect x="96.572" y="150.857" style="fill:none;stroke:#B29B8B;stroke-linecap:round;stroke-linejoin:round;stroke-miterlimit:10;" width="5.713" height="5.713"/>
		<rect x="397.382" y="426.714" style="fill:#CB4F24;" width="12.271" height="12.271"/>
		<g>
			<polyline style="fill:none;stroke:#A08A7C;stroke-miterlimit:10;" points="351.429,77.143 365.536,62.591 389.357,80.048 
				405.429,66.429 			"/>
			<circle style="fill:#4F264F;" cx="349.387" cy="80.048" r="8.148"/>
			<path style="fill:#4F264F;" d="M370.5,62.591c0,2.742-2.223,4.964-4.964,4.964s-4.964-2.223-4.964-4.964
				c0-2.742,2.223-4.964,4.964-4.964S370.5,59.849,370.5,62.591z"/>
			<circle style="fill:#4F264F;" cx="389.964" cy="80.048" r="4.964"/>
			<circle style="fill:#4F264F;" cx="406.25" cy="64.619" r="4.964"/>
		</g>
		
			<circle style="fill:none;stroke:#B29B8B;stroke-linecap:round;stroke-linejoin:round;stroke-miterlimit:10;" cx="66.83" cy="116.648" r="4.992"/>
		
			<circle style="fill:none;stroke:#B29B8B;stroke-linecap:round;stroke-linejoin:round;stroke-miterlimit:10;" cx="404.323" cy="380.799" r="6.941"/>
		<path style="fill:#B29B8B;" d="M417.405,267.563c0,2.053-1.665,3.718-3.718,3.718s-3.718-1.665-3.718-3.718
			c0-2.053,1.665-3.718,3.718-3.718S417.405,265.509,417.405,267.563z"/>
		<circle style="fill:#B29B8B;" cx="128.143" cy="80.048" r="4.964"/>
		<path style="fill:#4F264F;" d="M64.555,338.526c0,3.128-2.536,5.664-5.664,5.664c-3.128,0-5.664-2.536-5.664-5.664
			c0-3.128,2.536-5.664,5.664-5.664C62.019,332.862,64.555,335.398,64.555,338.526z"/>
		<circle style="fill:#B29B8B;" cx="369.245" cy="114.678" r="4.449"/>
	</g>
	<g>
		<g>
			<g>
				<path style="fill:#EFDEBD;" d="M302.58,58.15v92.86c0,2.48-0.68,4.8-1.86,6.79c-2.32,3.93-6.6,6.56-11.49,6.56h-127.5
					c-7.37,0-13.35-5.98-13.35-13.35V58.15c0-2.37,0.62-4.6,1.71-6.52c2.28-4.08,6.64-6.83,11.64-6.83h127.5
					C296.6,44.8,302.58,50.78,302.58,58.15z"/>
				<path style="fill:#E0CEAF;" d="M300.72,157.8c-2.32,3.93-6.6,6.56-11.49,6.56h-127.5c-7.37,0-13.35-5.98-13.35-13.35V58.15
					c0-2.37,0.62-4.6,1.71-6.52L300.72,157.8z"/>
				
					<ellipse transform="matrix(0.922 -0.3873 0.3873 0.922 -14.6491 91.8096)" style="fill:#FFF2D4;" cx="220.486" cy="82.254" rx="19.539" ry="19.539"/>
				<rect x="162.026" y="108.804" style="fill:#FFF2D4;" width="60.403" height="2.852"/>
				<rect x="162.026" y="116.967" style="fill:#FFF2D4;" width="60.403" height="2.852"/>
				<rect x="162.026" y="125.131" style="fill:#FFF2D4;" width="60.403" height="2.852"/>
				<g>
					
						<ellipse transform="matrix(0.227 -0.9739 0.9739 0.227 93.8379 211.5181)" style="fill:none;stroke:#B29B8B;stroke-linecap:round;stroke-linejoin:round;stroke-dasharray:4.9168,4.9168;" cx="180.165" cy="46.646" rx="28.179" ry="28.179"/>
				</g>
				<g>
					<path style="fill:#B29B8B;" d="M183.139,82.508h-5.592c-3.134,0-5.675-2.541-5.675-5.675v-9.423c0-1.48,1.2-2.679,2.68-2.679
						h5.96h5.622c1.48,0,2.68,1.2,2.68,2.679v9.423C188.814,79.968,186.274,82.508,183.139,82.508z"/>
					<path style="fill:#CB4F24;" d="M203.21,47.28c0,12.02-9.33,21.85-21.14,22.64c-0.51,0.04-1.04,0.06-1.56,0.06
						c-0.64,0-1.27-0.03-1.89-0.09c-11.65-0.95-20.81-10.71-20.81-22.61c0-12.54,10.17-22.7,22.7-22.7
						C193.05,24.58,203.21,34.74,203.21,47.28z"/>
					<circle style="fill:#EF6843;" cx="183.627" cy="43.173" r="15.642"/>
					<path style="fill:#FFFFFF;" d="M193.607,35.893c0,1.775-1.439,3.214-3.214,3.214c-1.775,0-3.214-1.439-3.214-3.214
						s1.439-3.214,3.214-3.214C192.168,32.679,193.607,34.118,193.607,35.893z"/>
				</g>
				<path style="fill:#E7B142;" d="M182.07,56.72v13.2c-0.51,0.04-1.04,0.06-1.56,0.06c-0.64,0-1.27-0.03-1.89-0.09V56.72
					c0-0.96,0.77-1.73,1.72-1.73C181.3,54.99,182.07,55.76,182.07,56.72z"/>
			</g>
			<g>
				<path style="fill:#E7B142;" d="M278.432,93.704l16.463,7.683l-9.357,46.976c0,0,5.753,7.745,6.424,17.857l-45.987-2.573
					l3.668-18.176l-6.36-44.577l16.194-6.836C259.478,94.058,266.501,88.088,278.432,93.704z"/>
				<path style="fill:#390634;" d="M254.015,76.824c0,0-7.673,15.527-6.156,19.937c0.559,1.626,4.143,3.418,6.395,1.07
					c0,0,2.107,0.992,5.038-0.43s3.591-11.636,3.591-11.636L254.015,76.824z"/>
				<path style="fill:#DB7E6B;" d="M275.751,78.04l-2.307,15.182c0,0-4.321,7.761-12.126,6.287c0,0-0.218-9.563-0.007-12.136
					L275.751,78.04z"/>
				<path style="fill:#FF967F;" d="M252.355,68.159c-0.485,8.666,1.924,18.931,6.787,19.667c7.769,1.176,20.106-8.707,20.591-17.373
					c0.485-8.667-5.526-16.448-13.372-16.887C258.515,53.127,252.84,59.493,252.355,68.159z"/>
				<polygon style="fill:#FFFFFF;" points="261.225,93.268 262.125,97.554 274.446,89.143 276.375,91.554 265.125,102.375 
					261.911,99.911 259.5,101.387 259.5,96.857 				"/>
				<path style="fill:#390634;" d="M261.094,54.38c-1.765,3.291-2.06,8.546,4.335,14.295c4.455,4.005,10.041,5.334,10.041,5.334
					s-0.394,5.457-3.301,5.295c0,0-1.526,9.051,1.275,13.919c2.8,4.867,7.798,2.408,7.798,2.408s2.756,2.599,7.111,0.84
					c4.611-1.863,3.312-5.471,3.312-5.471s-7.019-19.635-7.534-26.491C283.195,52.033,266.086,45.072,261.094,54.38z"/>
				<path style="fill:#390634;" d="M251.043,58.856c-3.624,6.831,1.262,12.442,1.262,12.442s1.599-6.714,5.57-11.353
					c3.971-4.638,10.3-8.372,10.3-8.372S256.872,47.87,251.043,58.856z"/>
				<path style="fill:#390634;" d="M247.404,156.57c-7.392,18.933,1.018,71.167,1.018,71.167h34.173c0,0,16.774-50.923,7.208-71.167
					H247.404z"/>
				<polygon style="fill:#DC911B;" points="243.284,100.895 216.727,117.947 219.584,127.982 246.059,120.348 				"/>
				<path style="fill:#FF967F;" d="M217.558,117.413c-2.953-4.169-20.475-19.429-24.246-22.696v0c0,0-1.37-4.414-2.37-6.057
					c-1-1.643-4.857-4.786-4.857-4.786s-0.357,1,0,2.214c0.357,1.214,1.929,3.207,1.929,3.207l-6.857-1.064
					c0,0-4.929-1.607-6.357-0.214l6.228,1.898l-0.03,0.39c-0.944-0.307-6.219-1.949-7.519-0.682l7.379,2.501l-0.013,0.167
					c-1.273-0.404-6.128-1.84-7.366-0.632l7.226,2.45l-0.054,0.7c-1.876-0.538-5.475-1.393-6.516-0.377l6.521,2.21l7.763,2.976
					c2.622,4.253,17.383,27.88,22.452,29.139c5.571,1.383,8.714-0.776,8.714-0.776S220.87,122.089,217.558,117.413z"/>
				<path style="fill:#DC911B;" d="M294.895,101.387c0,0-8.239,4.114-8.025,13.051c0.214,8.937,21.643,28.651,21.643,28.651
					l8.5-5.714C317.013,137.375,305.062,107.685,294.895,101.387z"/>
				<path style="fill:#FF967F;" d="M317.013,137.375c0,0-4.796,0.299-7.964,1.75c-2.854,1.307-16.56,21.381-19.25,25.349
					l-7.193,2.145c-0.907-0.056-2.301-0.101-3.182,0.069c-1.393,0.268-2.946,3.402-2.946,3.402s0.643,0.188,1.286-0.241
					c0.643-0.428,1.232-1.313,1.232-1.313l3.444-0.165l0.121,0.2c-1.108,0.273-2.894,0.749-3.592,1.144
					c-1.045,0.589-2.143,2.813-2.143,2.813s1.152-0.027,1.795-0.482c0.643-0.455,1.045-1.259,1.045-1.259l3.523-0.555
					c-1.066,0.277-2.384,0.658-2.961,0.984c-1.045,0.589-2.143,2.813-2.143,2.813s1.152-0.027,1.795-0.482
					c0.643-0.455,1.045-1.259,1.045-1.259l3.547-0.559l0.008,0.014c-0.312,0.113-0.581,0.225-0.77,0.331
					c-1.045,0.589-2.143,2.813-2.143,2.813s1.152-0.027,1.795-0.482c0.643-0.455,1.045-1.259,1.045-1.259l0.842-0.133l0.015,0.025
					c0,0,6.857-0.428,8.25-2.946c0,0,20.357-17.036,22.821-22.071C318.799,142.982,317.585,138.754,317.013,137.375z"/>
			</g>
		</g>
		<g>
			<path style="fill:#EFDEBD;" d="M322.64,278.07c0,4.21-0.34,8.33-1.01,12.35c-2.34,14.25-8.66,27.15-17.79,37.54
				c-13.85,15.76-34.17,25.71-56.8,25.71c-41.75,0-75.6-33.85-75.6-75.6c0-40.91,32.5-74.23,73.09-75.56
				c0.83-0.03,1.67-0.04,2.51-0.04c37.54,0,68.7,27.37,74.59,63.25C322.3,269.74,322.64,273.86,322.64,278.07z"/>
			<path style="fill:#E0CEAF;" d="M321.63,265.72v24.7c-2.34,14.25-8.66,27.15-17.79,37.54h-59.31V202.51
				c0.83-0.03,1.67-0.04,2.51-0.04C284.58,202.47,315.74,229.84,321.63,265.72z"/>
		</g>
		<g>
			<g>
				<path style="fill:#B29B8B;" d="M395.23,261.22c0,19.41-9,36.71-23.06,47.97c-10.5,8.4-23.82,13.43-38.33,13.43
					c-33.91,0-61.4-27.49-61.4-61.4c0-15.52,5.76-29.69,15.25-40.5c11.26-12.81,27.76-20.89,46.15-20.89
					C367.75,199.83,395.23,227.31,395.23,261.22z"/>
				<polygon style="fill:#C67C1A;" points="345.394,223.497 384.199,239.164 380.091,253.544 347.905,247.609 				"/>
				<path style="fill:#A08A7C;" d="M372.505,309.31c-10.5,8.4-23.82,13.43-38.33,13.43c-33.91,0-61.4-27.49-61.4-61.4
					c0-15.52,5.76-29.69,15.25-40.5L372.505,309.31z"/>
				<path style="fill:#FF967F;" d="M380.091,253.544c0,0-0.731-9.18,2.374-19.656c3.105-10.475,19.768-48.089,19.768-48.089
					l8.218,1.548c0,0-10.5,57.295-16.435,62.545C388.08,255.142,380.091,253.544,380.091,253.544z"/>
				<path style="fill:#390634;" d="M345.301,164.29c0,0,8.183-1.259,12.463,3.777c4.28,5.035,4.202,13.21,1.408,15.857
					L345.301,164.29z"/>
				<polygon style="fill:#DB7E6B;" points="341.546,206.262 337.951,222.452 321.634,212.337 327.697,196.831 				"/>
				<path style="fill:#E7B142;" d="M339.75,218.786l-17.393-9.571c0,0-16.4,7.02-17.286,18.523
					c-0.841,10.925,3.599,38.134,2.745,60.17c-2.05,4.462-4.807,11.937-5.241,20.574h4.014l46.46-7.161l-3.546-20.079
					c1.531-16.546,5.02-29.459,5.022-36.066C354.529,230.566,339.75,218.786,339.75,218.786z"/>
				<polygon style="fill:#FFFFFF;" points="327.725,206.622 340.276,212.239 341.546,220.283 327.35,211.872 				"/>
				<path style="fill:#FF967F;" d="M359.652,189.468c0,11.68-1.686,19.444-4.532,20.174c-10.304,2.642-29.961-10.13-29.961-21.81
					c0-11.68,6.987-20.897,17.624-20.897C353.421,166.934,359.652,177.787,359.652,189.468z"/>
				<path style="fill:#390634;" d="M355.12,171.214c0,0-1.637,8.057-8.686,12.715c-7.05,4.658-12.211,3.399-12.211,3.399
					s-1.888,5.161,0,7.679c1.888,2.518,2.896,1.824,2.896,1.824s-4.406,18.57-9.945,21.339c-5.539,2.77-8.309,0-8.309,0
					s-5.917,4.406-11.708,2.014c-5.791-2.392-5.161-8.435-0.755-14.1c4.406-5.665,10.575-17.624,10.575-25.681
					c0-8.057,6.581-16.416,15.232-18.757C342.909,158.751,351.344,162.528,355.12,171.214z"/>
				<path style="fill:#DC911B;" d="M330.782,223.223l30.362,23.948v20.781l-44.778-21.724c-6.227-3.021-9.209-10.224-6.939-16.762
					l0,0C312.507,220.596,323.411,217.409,330.782,223.223z"/>
				<polygon style="fill:#390634;" points="457.929,192.065 358.075,188.463 358.075,182.371 457.929,176.086 				"/>
				<path style="fill:#FF967F;" d="M370.656,201.652c0,0-13.392,40.916-13.392,49.067c0,8.151,3.88,17.233,3.88,17.233
					s13.163-5.109,14.381-23.834c1.217-18.726,4.565-44.292,4.565-44.292L370.656,201.652z"/>
				<path style="fill:#FF967F;" d="M370.726,203.098l-2.049-17.136l11.076-1.069c0,0,2.071,14.39-0.864,18.206H370.726z"/>
				<path style="fill:#FF967F;" d="M368.677,185.961c0,0,0.813-6.039,1.59-7.135s2.826-0.177,3.427,0.283
					c0,0-0.283,0.459-1.025,0.777c-0.742,0.318-1.131,0.212-1.131,0.212l-0.106,5.863
					C371.433,185.961,369.384,187.02,368.677,185.961z"/>
				<path style="fill:#FF967F;" d="M372.281,185.961c0,0,0.207-4.581,0.636-5.827c0.429-1.246,2.226-2.296,3.851-2.402
					c0,0-0.141,1.448-0.671,1.943c-0.53,0.495-1.307,0.984-1.307,0.984l-0.265,5.303H372.281z"/>
				<path style="fill:#FF967F;" d="M374.365,185.961c0,0,0.207-4.581,0.636-5.827c0.429-1.246,2.226-2.296,3.851-2.402
					c0,0-0.141,1.448-0.671,1.943c-0.53,0.495-1.307,0.984-1.307,0.984l-0.265,5.303H374.365z"/>
				<path style="fill:#FF967F;" d="M377.227,185.785c0,0,0.196-4.343,0.603-5.524c0.407-1.182,2.11-2.177,3.65-2.277
					c0,0-0.139,1.09-0.641,1.559c-0.502,0.469-1.235,1.215-1.235,1.215l0.175,4.852L377.227,185.785z"/>
				<path style="fill:#390634;" d="M303.467,301.32h49.582v71.38l-44.379-12.783c0,0-8.625-20.087-10.147-31.349
					C297.002,317.307,303.467,301.32,303.467,301.32z"/>
				<path style="fill:#4C0D49;" d="M383.629,182.388v4.77c0,1.578,1.234,2.881,2.81,2.966l22.363,1.206
					c1.267,0.068,2.333-0.941,2.333-2.21v-8.79c0-1.273-1.071-2.284-2.342-2.21l-22.366,1.303
					C384.855,179.515,383.629,180.815,383.629,182.388z"/>
				<ellipse style="fill:#DC911B;" cx="457.929" cy="184.075" rx="1.978" ry="7.989"/>
				<path style="fill:#FF967F;" d="M406.847,178.233c0,0,1.324-1.575,2.106-2.012c0.782-0.437,1.748,0.242,2.323,1.248
					c0.575,1.006,1.081,2.386,1.081,2.386s-0.92,0.069-1.541-0.23c-0.621-0.299-1.115-1.238-1.115-1.238L406.847,178.233z"/>
				<path style="fill:#FF967F;" d="M409.7,177.591c0,0,1.035-1.012,1.863-1.127c0.828-0.115,2.07,1.403,2.553,2.116
					c0.483,0.713,0.897,1.679,0.897,1.679s-0.966,0.221-1.771-0.2c-0.805-0.421-0.989-1.065-0.989-1.065l-1.656,0.161L409.7,177.591
					z"/>
				<path style="fill:#FF967F;" d="M413.231,177.916c0,0,0.713-0.828,1.656-0.851c0.943-0.023,2.438,2.277,2.76,2.829
					c0,0-0.529,0.345-1.334,0s-1.173-1.053-1.173-1.053l-1.035,0.042L413.231,177.916z"/>
				<path style="fill:#FF967F;" d="M416.025,177.833c0,0,0.529-0.322,1.242-0.368c0.713-0.046,2.001,2.07,2.001,2.07
					s-0.552,0.253-0.989,0c-0.437-0.253-1.104-0.92-1.104-0.92h-0.736L416.025,177.833z"/>
			</g>
			<g>
				<path style="fill:#EFDEBD;" d="M402.49,137.375h-39.164c-3.213,0-5.817,2.604-5.817,5.817v9.67c0,3.213,2.604,5.817,5.817,5.817
					h3.639l-1.679,10.418l11.507-10.418h25.698c3.213,0,5.817-2.604,5.817-5.817v-9.67
					C408.307,139.979,405.703,137.375,402.49,137.375z"/>
				<circle style="fill:#B29B8B;" cx="365.536" cy="147.25" r="1.821"/>
				<path style="fill:#B29B8B;" d="M374.143,147.25c0,1.006-0.815,1.821-1.822,1.821c-1.006,0-1.821-0.815-1.821-1.821
					s0.815-1.821,1.821-1.821C373.327,145.429,374.143,146.244,374.143,147.25z"/>
				<path style="fill:#B29B8B;" d="M380.929,147.25c0,1.006-0.815,1.821-1.822,1.821c-1.006,0-1.821-0.815-1.821-1.821
					s0.815-1.821,1.821-1.821C380.113,145.429,380.929,146.244,380.929,147.25z"/>
				<path style="fill:#B29B8B;" d="M387.714,147.25c0,1.006-0.815,1.821-1.821,1.821c-1.006,0-1.822-0.815-1.822-1.821
					s0.816-1.821,1.822-1.821C386.899,145.429,387.714,146.244,387.714,147.25z"/>
				<path style="fill:#B29B8B;" d="M394.5,147.25c0,1.006-0.816,1.821-1.821,1.821c-1.006,0-1.822-0.815-1.822-1.821
					s0.815-1.821,1.822-1.821C393.684,145.429,394.5,146.244,394.5,147.25z"/>
				<circle style="fill:#B29B8B;" cx="399.464" cy="147.25" r="1.821"/>
			</g>
		</g>
		<g>
			<polygon style="fill:#FFFFFF;" points="199.32,270.384 234.56,253.856 245.005,278.754 210.82,293.62 			"/>
			<path style="fill:#FFFFFF;" d="M247.04,270.91c0,0,10.57-12.079,15.636-18.268l27.475,20.131l-17.599,18.164L247.04,270.91z"/>
			<g>
				<path style="fill:#B29B8B;" d="M200.74,251.7v61.06c0,31.46-25.08,57.06-56.33,57.9c-0.52,0.01-1.05,0.02-1.58,0.02h-4.84
					c-10.96,0-21.2-3.04-29.94-8.33c-5.18-3.13-9.83-7.05-13.78-11.6c-8.85-10.17-14.2-23.46-14.2-37.99V251.7
					c0-31.99,25.93-57.92,57.92-57.92h4.84c0.53,0,1.05,0.01,1.58,0.03c14.44,0.38,27.56,6.05,37.5,15.14
					c5.34,4.88,9.76,10.76,12.97,17.34C198.63,233.96,200.74,242.58,200.74,251.7z"/>
				<path style="fill:#A08A7C;" d="M200.74,251.7v61.06c0,31.46-25.08,57.06-56.33,57.9c-0.52,0.01-1.05,0.02-1.58,0.02h-4.84
					c-10.96,0-21.2-3.04-29.94-8.33c-5.18-3.13-9.83-7.05-13.78-11.6l100.61-124.46C198.63,233.96,200.74,242.58,200.74,251.7z"/>
				<polygon style="fill:#DC911B;" points="102.513,233.863 70.483,267.169 75.827,281.986 113.752,262.309 				"/>
				<path style="fill:#E7B142;" d="M132.865,213.827l-30.352,20.036c0,0,2.589,21.118,4.714,29.319
					c2.126,8.201,29.45,23.784,29.45,23.784l8.811,14.352l40.812-30.139l-19.343-14.967c0,0-9.801-35.773-12.127-43.72
					L132.865,213.827z"/>
				<path style="fill:#390634;" d="M108.396,174.21c0,0-7.907-1.216-12.043,3.649c-4.136,4.866-4.06,12.765-1.361,15.323
					L108.396,174.21z"/>
				<polygon style="fill:#DB7E6B;" points="112.024,214.768 115.786,228.9 131.265,220.638 125.407,205.654 				"/>
				<polygon style="fill:#FFFFFF;" points="124.643,218.373 115.764,226.984 113.879,221.736 109.857,232.857 115.786,228.9 
					122.571,231.286 128.571,217.643 				"/>
				<path style="fill:#FF967F;" d="M94.528,198.539c0,11.287,1.629,18.789,4.379,19.494c9.957,2.553,28.952-9.789,28.952-21.076
					c0-11.287-6.751-20.193-17.031-20.193S94.528,187.253,94.528,198.539z"/>
				<path style="fill:#390634;" d="M97.975,180.893c0,0,1.581,7.785,8.394,12.286c6.812,4.501,11.8,3.285,11.8,3.285
					s1.825,4.988,0,7.42c-1.825,2.433-2.798,1.762-2.798,1.762s4.258,17.944,9.61,20.62c5.352,2.676,8.029,0,8.029,0
					s5.717,4.258,11.313,1.946c5.596-2.311,4.988-8.15,0.73-13.624c-4.258-5.474-10.218-17.03-10.218-24.816
					s-6.359-15.863-14.719-18.125C109.775,168.85,101.624,172.499,97.975,180.893z"/>
				<path style="fill:#DC911B;" d="M154.83,212.491l55.4,20.936l-3.039,11.883l-45.43-6.445c-8.47-1.202-14.615-9.092-13.137-17.519
					C149.215,217.975,150.978,214.76,154.83,212.491z"/>
				<path style="fill:#390634;" d="M186.3,271.179c0,0,19.115,13.583,19.141,35.354c0.035,28.271-52.571,77.145-52.571,77.145
					s-19.565-18.986-18.734-36.949c1.384-29.926,11.353-45.412,11.353-45.412L186.3,271.179z"/>
				<g>
					<path style="fill:#EFDEBD;" d="M214.636,286.568l-20.912,19.142c-1.266,1.159-3.231,1.072-4.39-0.194l-31.581-34.5
						c-1.159-1.266-1.072-3.231,0.194-4.39l20.912-19.143c1.266-1.159,3.231-1.072,4.39,0.194l31.581,34.5
						C215.988,283.444,215.902,285.409,214.636,286.568z"/>
					<polygon style="fill:#FFFFFF;" points="165.417,263.135 159.283,268.75 190.486,302.838 212.34,282.833 181.137,248.746 					
						"/>
					<polygon style="fill:#ECECEC;" points="165.33,261.37 159.902,266.339 188.241,297.298 207.58,279.595 179.24,248.636 					"/>
					<path style="fill:#B29B8B;" d="M176.171,255.608l-9.895,9.057c-0.324,0.296-0.826,0.274-1.123-0.05l-2.475-2.703
						c-0.296-0.324-0.274-0.826,0.05-1.123l9.895-9.057c0.324-0.296,0.826-0.274,1.123,0.05l2.475,2.703
						C176.517,254.809,176.495,255.312,176.171,255.608z"/>
					<path style="fill:#B29B8B;" d="M169.176,251.712l-6.199,5.674c-0.329,0.301-0.351,0.811-0.05,1.14l1.859,2.031
						c0.301,0.329,0.812,0.351,1.14,0.05l6.199-5.674c0.329-0.301,0.351-0.811,0.05-1.14l-1.859-2.031
						C170.016,251.434,169.505,251.411,169.176,251.712z M171.132,254.06c0.19,0.207,0.126,0.575-0.143,0.821l-5.068,4.639
						c-0.269,0.246-0.64,0.277-0.83,0.07l-1.172-1.281c-0.19-0.207-0.126-0.575,0.143-0.821l2.534-2.319l2.534-2.32
						c0.269-0.246,0.641-0.277,0.83-0.07L171.132,254.06z"/>
					
						<rect x="164.407" y="262.024" transform="matrix(0.7376 -0.6752 0.6752 0.7376 -131.2618 186.8206)" style="fill:#D9D9D9;" width="20.701" height="0.57"/>
					
						<rect x="166.01" y="263.775" transform="matrix(0.7376 -0.6752 0.6752 0.7376 -132.0236 188.3624)" style="fill:#D9D9D9;" width="20.701" height="0.57"/>
					
						<rect x="167.613" y="265.526" transform="matrix(0.7376 -0.6752 0.6752 0.7376 -132.7854 189.9041)" style="fill:#D9D9D9;" width="20.701" height="0.57"/>
					
						<rect x="169.216" y="267.278" transform="matrix(0.7376 -0.6752 0.6752 0.7376 -133.5472 191.4458)" style="fill:#D9D9D9;" width="20.701" height="0.57"/>
					
						<rect x="170.818" y="269.029" transform="matrix(0.7376 -0.6752 0.6752 0.7376 -134.309 192.9875)" style="fill:#D9D9D9;" width="20.701" height="0.57"/>
					
						<rect x="172.421" y="270.78" transform="matrix(0.7376 -0.6752 0.6752 0.7376 -135.0708 194.5293)" style="fill:#D9D9D9;" width="20.701" height="0.57"/>
					
						<rect x="174.024" y="272.531" transform="matrix(0.7376 -0.6752 0.6752 0.7376 -135.8328 196.0721)" style="fill:#D9D9D9;" width="20.701" height="0.57"/>
					
						<rect x="175.627" y="274.282" transform="matrix(0.7376 -0.6752 0.6752 0.7376 -136.5943 197.6128)" style="fill:#D9D9D9;" width="20.701" height="0.57"/>
					
						<rect x="177.23" y="276.033" transform="matrix(0.7376 -0.6752 0.6752 0.7376 -137.3561 199.1546)" style="fill:#D9D9D9;" width="20.701" height="0.57"/>
					
						<rect x="178.833" y="277.784" transform="matrix(0.7376 -0.6752 0.6752 0.7376 -138.1179 200.6963)" style="fill:#D9D9D9;" width="20.701" height="0.57"/>
					
						<rect x="180.436" y="279.535" transform="matrix(0.7376 -0.6752 0.6752 0.7376 -138.8797 202.2381)" style="fill:#D9D9D9;" width="20.701" height="0.57"/>
					
						<rect x="182.039" y="281.286" transform="matrix(0.7376 -0.6752 0.6752 0.7376 -139.6415 203.7797)" style="fill:#D9D9D9;" width="20.701" height="0.57"/>
					
						<rect x="183.642" y="283.037" transform="matrix(0.7376 -0.6752 0.6752 0.7376 -140.4033 205.3215)" style="fill:#D9D9D9;" width="20.701" height="0.57"/>
					
						<rect x="185.245" y="284.788" transform="matrix(0.7376 -0.6752 0.6752 0.7376 -141.1653 206.8643)" style="fill:#D9D9D9;" width="20.701" height="0.57"/>
				</g>
				<path style="fill:#FF967F;" d="M201.547,243.862L186.3,281.033l7.217,3.545c0,0,19.048-29.861,21.58-38.471
					c2.532-8.609-4.867-12.68-4.867-12.68S204.857,235.714,201.547,243.862z"/>
				<path style="fill:#FF967F;" d="M186.706,280.408c0,0-6.002,2.121-6.983,2.583c-0.981,0.462-4.559,7.387-4.559,7.387
					s1.039,0.289,1.962-0.231c0.923-0.519,2.77-3.347,2.77-3.347l0.635,0.346c0,0-4.271,8.542-4.213,9.176
					c0.058,0.635,1.212,1.327,2.078,0.981c0.866-0.346,2.539-3.521,2.539-3.521l0.462,0.231c0,0-2.078,3.694-1.962,4.098
					c0.115,0.404,1.5,1.212,2.366,0.808c0.866-0.404,1.27-0.635,1.27-0.635s1.501,0.519,2.251,0.231
					c0.75-0.289,1.039-0.75,1.039-0.75s1.789,0.173,2.424-0.231c0.635-0.404,1.962-2.078,2.366-2.886
					c0.404-0.808,2.436-10.236,2.436-10.236L186.706,280.408z"/>
				<path style="fill:#FF967F;" d="M71.894,281.497c3.032,1.667,6.812,0.067,7.72-3.271c1.198-4.407,2.467-11.051,2.039-18.472
					c-0.762-13.24-6.472-38.538-6.472-38.538l-7.6,1.32c0,0-4.521,43.183-2.493,51.091C66.067,277.445,69.06,279.939,71.894,281.497
					z"/>
				<path style="fill:#FF967F;" d="M72.344,214.322l-8.086-7.063l-5.705,11.891c0,0,8.165,7.609,10.653,7.891
					s5.241-4.857,5.241-4.857L72.344,214.322z"/>
				<path style="fill:#766A5A;" d="M66.03,206.926l-2.503,15.541c-0.156,0.968,0.592,1.845,1.572,1.845h3.777
					c0.794,0,1.467-0.586,1.577-1.372l1.37-9.843v-4.529L66.03,206.926z"/>
				<path style="fill:#FF967F;" d="M75.694,223.545c0,0,1.965-5.994,0.762-9.059c-1.203-3.065-3.034-4.547-4.032-5.325
					c-0.998-0.778-2.086-2.805-2.086-2.805s-1.416,2.01-0.681,3.628c0.735,1.618,2.166,3.113,2.166,3.113s-0.435,3.199-0.327,5.859
					c0.108,2.66,3.402,5.355,3.402,5.355L75.694,223.545z"/>
				<path style="fill:#DB7E6B;" d="M64.108,211.77c0,0-2.331-2.647-2.25-4.432c0.081-1.785,2.007-1.689,2.348-1.68
					c0.341,0.009,2.98,2.204,2.98,2.204s2.652,4.418,1.914,5.164c-0.739,0.746-2.453,0.052-3.055-1.626l-1.563-1.357L64.108,211.77z
					"/>
				<path style="fill:#DB7E6B;" d="M59.449,212.18c0,0-1.281-1.956-1.006-2.716c0.275-0.76,1.072-1.207,1.716-1.244
					c0.645-0.036,4.357,2.37,5.04,2.943c0.682,0.572,2.458,3.9,2.766,4.595c0.309,0.696-0.158,1.122-1.512,1.067
					c-1.354-0.055-2.944-3.061-2.944-3.061L59.449,212.18z"/>
				<path style="fill:#DB7E6B;" d="M58.734,215.988c0,0-1.282-1.955-1.006-2.716c0.275-0.76,1.072-1.207,1.716-1.244
					c0.645-0.036,4.357,2.37,5.04,2.943c0.683,0.573,2.458,3.9,2.766,4.595c0.309,0.696-0.158,1.122-1.512,1.067
					c-1.354-0.055-2.944-3.061-2.944-3.061L58.734,215.988z"/>
				<path style="fill:#DB7E6B;" d="M58.554,219.15c0,0-1.113-1.699-0.874-2.359c0.239-0.66,0.931-1.049,1.491-1.08
					c0.56-0.032,3.785,2.059,4.378,2.556s2.135,3.387,2.403,3.992c0.268,0.604-0.137,0.975-1.313,0.926
					c-1.176-0.048-2.558-2.659-2.558-2.659L58.554,219.15z"/>
				<polygon style="fill:#DC911B;" points="51.772,181.452 84.111,201.69 82.259,210.625 43.588,205.221 				"/>
				<path style="fill:#766A5A;" d="M53.067,190.737c-0.248,1.321-0.629,2.712-1.125,4.121c-0.638,1.799-1.392,3.457-2.216,4.883
					c-2.18,3.793-4.804,6.035-6.691,5.371c-2.597-0.913-2.836-6.993-0.523-13.569c2.313-6.576,6.292-11.158,8.898-10.245
					C53.457,182.016,54.042,185.915,53.067,190.737z"/>
				<path style="fill:#766A5A;" d="M78.682,198.292c0,0,1.266,7.027-3.803,11.302l7.216,1.112c1.14,0.176,2.225-0.552,2.494-1.673
					l1.172-4.876c0.231-0.961-0.202-1.959-1.061-2.447L78.682,198.292z"/>
				<path style="fill:#635749;" d="M53.067,190.737c-0.248,1.321-0.629,2.712-1.125,4.121c-0.638,1.799-1.392,3.457-2.216,4.883
					l-5.734-4.6l2.092-5.264L53.067,190.737z"/>
				<path style="fill:#918371;" d="M46.537,193.066c-0.522,1.5-1.509,2.52-2.203,2.278c-0.695-0.242-0.835-1.654-0.312-3.154
					c0.522-1.5,1.508-2.52,2.203-2.278C46.919,190.154,47.059,191.566,46.537,193.066z"/>
			</g>
		</g>
		<g>
			<path style="fill:#FFF2D4;" d="M387.61,428.11c0,12.81-2.06,25.15-5.86,36.75H141.39c-0.04-0.11-0.07-0.22-0.11-0.33
				c-3.74-11.5-5.76-23.73-5.76-36.42c0-36.21,16.41-68.71,42.44-90.98c22.25-19.04,51.53-30.6,83.61-30.6
				C331.18,306.53,387.61,360.96,387.61,428.11z"/>
			<path style="fill:#EFDEBD;" d="M380.46,461.19l-239.18,3.34c-3.74-11.5-5.76-23.73-5.76-36.42c0-36.21,16.41-68.71,42.44-90.98
				L380.46,461.19z"/>
			<path style="fill:#5E4F45;" d="M280.277,342.777h21.566c5.3,0,9.857,3.749,10.872,8.951
				c3.993,20.464,13.519,69.691,14.757,79.905c1.572,12.971-9.041,23.191-9.041,23.191h-48.348L280.277,342.777z"/>
			<path style="fill:#DC911B;" d="M216.731,366.725l-25.029,59.989l12.954,9.31c0,0,25.882-24.114,28.677-38.949
				S216.731,366.725,216.731,366.725z"/>
			<path style="fill:#E7B142;" d="M268.246,353.15l25.046,10.025l-9.976,70.424c0,0,9.172,11.006,11.006,25.943h-68.395
				l3.931-27.253l-13.128-65.564l23.443-11.479C240.174,355.246,250.092,345.812,268.246,353.15z"/>
			<path style="fill:#390634;" d="M230.644,330.147c0,0-10.089,23.657-7.474,30.07c0.964,2.364,6.426,4.724,9.57,1.055
				c0,0,3.206,1.296,7.434-1.055c4.228-2.351,4.359-17.55,4.359-17.55L230.644,330.147z"/>
			<path style="fill:#DB7E6B;" d="M262.973,330.147l-2.162,22.7c0,0-5.763,11.865-17.457,10.327c0,0-1.116-14.16-1.018-17.992
				L262.973,330.147z"/>
			<path style="fill:#FFFFFF;" d="M242.712,354.143l2.633,6.714c0,0,16.44-13.754,19.083-14.127l1.714,2.984l-13.071,19.214
				l-7.726-5.616L239,366.725l1.286-7.225L242.712,354.143z"/>
			<path style="fill:#FF967F;" d="M227.465,317.438c0,12.89,4.422,27.908,11.694,28.596c11.617,1.099,29.088-14.576,29.088-27.466
				c0-12.89-9.558-23.928-21.226-23.928C235.352,294.64,227.465,304.548,227.465,317.438z"/>
			<path style="fill:#390634;" d="M239.278,296.283c-2.344,5.026-2.345,12.842,7.613,20.835c6.938,5.569,15.33,7.075,15.33,7.075
				s-0.131,8.123-4.455,8.123c0,0-1.511,13.547,3.044,20.531c4.555,6.984,11.762,2.923,11.762,2.923s4.302,3.625,10.613,0.655
				c6.682-3.145,4.457-8.386,4.457-8.386s-12.035-28.53-13.367-38.652C271.852,290.971,245.909,282.069,239.278,296.283z"/>
			<path style="fill:#390634;" d="M224.748,303.753c-4.807,10.429,2.903,18.342,2.903,18.342s1.813-10.087,7.316-17.294
				c5.503-7.206,14.577-13.266,14.577-13.266S232.479,286.982,224.748,303.753z"/>
			<path style="fill:#DC911B;" d="M293.292,363.175c0,0-4.879,1.715-8.356,7.698c-3.476,5.984-4.659,57.097-4.659,57.097
				s4.562,3.177,14.204-1.564c9.643-4.74,8.034-46.031,6.763-53.524C299.973,365.388,293.292,363.175,293.292,363.175z"/>
			<polygon style="fill:#CB4F24;" points="264.285,322.095 245.345,339.762 254.741,350.795 272.257,332.039 			"/>
			<path style="fill:#FF967F;" d="M261.424,356.458c0,0,4.728,57.487,10.231,66.528c5.503,9.041,15.133,5.503,15.133,5.503
				s5.347-7.558,4.324-14.544c-1.023-6.986-18.671-60.973-18.671-60.973L261.424,356.458z"/>
			<path style="fill:#FF967F;" d="M272.441,352.973l-5.14-17.645c0,0-4.68-6.429-5.127-6.914c-0.447-0.484-4.207-0.67-5.548-0.112
				c0,0,0.223,0.559,1.005,0.968c0.782,0.41,2.867,1.229,2.867,1.229l3.377,6.029l-0.504,0.428
				c-1.168-1.423-4.131-5.027-4.622-5.563c-0.614-0.67-4.971-2.29-4.971-2.29s-0.112,1.161,0.726,2.178
				c0.838,1.017,2.122,2.039,2.122,2.039l3.431,6.445l-0.448,0.38c-0.892-1.585-2.744-4.861-3.039-5.261
				c-0.391-0.531-4.021-2.318-4.021-2.318s-0.903,1.421,2.373,3.99l2.292,5.618l-0.41,0.348c-0.645-1.18-1.897-3.533-2.453-4.116
				c-0.727-0.762-3.942-3.369-3.942-3.369s-0.224,3.318,2.792,5.366l3.769,7.294l0,0l4.683,9.897L272.441,352.973z"/>
			<path style="fill:#FF967F;" d="M191.702,426.714l-40.433,25.533c-4.073-1.271-9.747-3.028-10.289-3.126
				c-0.854-0.155-3.34,2.952-3.34,2.952l-2.408,0.233l-1.631,1.243l-2.874,0.777l-1.243,2.253l-1.709,1.243l-1.165,3.728
				c0,0,1.32,0.44,2.408-0.829l0.078,1.217h15.923c0,0,0.777,0.854,5.748,0.777c4.971-0.078,9.321-1.994,9.321-1.994
				s37.201-10.912,44.569-24.696C204.656,436.024,203.028,428.827,191.702,426.714z"/>
			<polygon style="fill:#CB4F24;" points="138.665,409.49 154.406,461.189 235.719,461.189 233.542,455.873 208.201,455.873 
				194.219,409.49 			"/>
			<rect x="73.152" y="460.066" style="fill:#5E4F45;" width="356.388" height="4.792"/>
			<g>
				<g>
					<rect x="326.994" y="371.368" style="fill:#C5C5C5;" width="27.712" height="43.925"/>
					<rect x="322.199" y="373.858" style="fill:#D9D9D9;" width="27.712" height="43.925"/>
					<rect x="318.268" y="375.823" style="fill:#ECECEC;" width="27.712" height="43.925"/>
					<rect x="314.73" y="377.941" style="fill:#F6F6F6;" width="27.712" height="43.925"/>
				</g>
				<rect x="346.401" y="383.678" style="fill:#9C897A;" width="15.628" height="76.388"/>
				<rect x="349.387" y="387.74" style="fill:#C5BA9F;" width="9.565" height="13.233"/>
				<rect x="349.387" y="402.874" style="fill:#C5BA9F;" width="9.565" height="0.983"/>
				<polygon style="fill:#917D70;" points="320.037,409.49 311.586,409.49 311.586,460.066 346.401,460.066 346.401,383.678 				"/>
			</g>
			<rect x="369.007" y="434.123" style="fill:#9C897A;" width="15.723" height="25.943"/>
			<polygon style="fill:#A8462C;" points="138.665,409.49 207.429,460.066 154.064,460.066 			"/>
			<path style="fill:#E56441;" d="M174.289,433.877c0.718,2.632-0.408,5.231-2.515,5.806c-2.107,0.575-4.397-1.093-5.114-3.725
				c-0.718-2.632,0.408-5.231,2.515-5.806C171.282,429.578,173.572,431.245,174.289,433.877z"/>
		</g>
	</g>
</g>
</svg>
