<svg width="3712" height="3712" viewBox="0 0 3712 3712" fill="none" xmlns="http://www.w3.org/2000/svg">
<g clip-path="url(#clip0_12_314)">
<rect width="3712" height="3712" fill="#BBD0FC"/>
<path d="M3712 0H0V3712H3712V0Z" fill="#C5D7FC"/>
<mask id="mask0_12_314" style="mask-type:luminance" maskUnits="userSpaceOnUse" x="396" y="557" width="2996" height="2532">
<path d="M3193.17 1684.7C3049.49 1506.66 3001.02 1272.26 3046.65 1048.08C3057.46 995.002 3057.32 940.235 3044.55 885.995C2987.97 645.554 2704.83 506.465 2412.14 575.338C2364.04 586.659 2318.68 602.896 2276.72 623.193C2109.57 704.048 1921.57 731.969 1737.35 708.688C1598.83 691.182 1454.41 697.7 1309.85 731.717C677.084 880.613 281.37 1499.59 426.004 2114.24C568.211 2718.59 1167.41 3074.86 1760.82 2972.75C1940.6 2941.81 2124.82 2962.8 2294.12 3030.71C2441.3 3089.75 2605.24 3105.79 2768.48 3067.37C3208.06 2963.94 3476.14 2504.97 3367.25 2042.24C3335.28 1906.39 3274.38 1785.33 3193.17 1684.7Z" fill="white"/>
</mask>
<g mask="url(#mask0_12_314)">
<path d="M3225.77 761.391H392.366V2840.86H3225.77V761.391Z" fill="#CEDDFF"/>
<path d="M3225.77 761.391H392.366V828.533H3225.77V761.391Z" fill="#C0D3FF"/>
<path d="M1013.47 2526.52V761.391H392.366V2840.85H3225.78V2526.52H1013.47Z" fill="#CEDDFF"/>
<path d="M392.366 1920.3V2840.85H428.914L2447.57 822.208L2386.75 761.391H1551.27L392.366 1920.3Z" fill="#E6EDFD"/>
<path d="M2441.24 828.533L2447.57 822.208L2386.75 761.391H1551.27L1484.12 828.533H2441.24Z" fill="#C0D3FF"/>
<path d="M1013.47 1299.19L392.366 1920.3V2840.85H428.914L1013.47 2256.29V1299.19Z" fill="#E6EDFD"/>
<path d="M3225.78 811.666V761.391H2930.93L879.269 2813.05L907.072 2840.85H1196.59L3225.78 811.666Z" fill="#E6EDFD"/>
<path d="M2930.93 761.391L2863.79 828.533H3208.91L3225.78 811.666V761.391H2930.93Z" fill="#C0D3FF"/>
<path d="M3225.78 1690.84H376.783V1743.91H3225.78V1690.84Z" fill="#C0D3FF"/>
<path d="M1258.89 788.548H1177.18V2857.39H1258.89V788.548Z" fill="white"/>
<path d="M2440.96 766.699H2359.25V2835.54H2440.96V766.699Z" fill="white"/>
<path d="M1258.89 1686.99H1177.18V1787.02H1258.89V1686.99Z" fill="#ACC5FF"/>
<path d="M2400.1 1685.93V1785.97" stroke="#F0E1D3" stroke-width="11.0054" stroke-miterlimit="10"/>
<path d="M1258.89 767.753H1177.18V867.791H1258.89V767.753Z" fill="#ACC5FF"/>
<path d="M2440.96 766.699H2359.25V866.737H2440.96V766.699Z" fill="#ACC5FF"/>
<path d="M3290.99 1620.72H304.139V1702.43H3290.99V1620.72Z" fill="white"/>
<path d="M3290.99 522.368H327.153V788.548H3290.99V522.368Z" fill="#89ADFF"/>
<path d="M1013.47 522.368H327.153V788.548H1013.47V522.368Z" fill="#F0E1D3"/>
<path d="M3406.35 1107.87H2746.19V3702.91H3406.35V1107.87Z" fill="#7D97F4"/>
<path d="M3430.18 3726.74H2722.36V1084.04H3430.18V3726.74ZM2770.02 3679.08H3382.52V1131.7H2770.02V3679.08Z" fill="#BDD0FB"/>
<path d="M3406.35 1832.75H2746.19V1880.41H3406.35V1832.75Z" fill="#BDD0FB"/>
<path d="M2992.29 1242.84H2807.54V1830.68H2992.29V1242.84Z" fill="#91B3FA"/>
<path d="M2992.29 1681.34H2807.54V1765.75H2992.29V1681.34Z" fill="white"/>
<path d="M3224.68 1242.84H3039.93V1830.68H3224.68V1242.84Z" fill="#91B3FA"/>
<path d="M3224.68 1681.34H3039.93V1765.75H3224.68V1681.34Z" fill="white"/>
<path d="M3006.37 1921.11H2821.62V2508.96H3006.37V1921.11Z" fill="#91B3FA"/>
<path d="M3006.37 2005.53H2821.62V2089.95H3006.37V2005.53Z" fill="white"/>
<path d="M3006.37 2114.47H2821.62V2156.68H3006.37V2114.47Z" fill="white"/>
<path d="M3239.3 2023.62H3054.55V2611.47H3239.3V2023.62Z" fill="#91B3FA"/>
<path d="M3239.3 2108.04H3054.55V2192.45H3239.3V2108.04Z" fill="white"/>
<path d="M3239.3 2216.98H3054.55V2259.19H3239.3V2216.98Z" fill="white"/>
<path d="M978.275 3154.15C968.55 2848.69 964.608 2745.51 964.571 2744.51C961.393 2718.13 967.243 2695.74 982.01 2678.47C1009.72 2646.05 1058.62 2643.89 1060.68 2643.81L1061.17 2657.09C1060.73 2657.1 1015.93 2659.17 992.047 2687.16C979.834 2701.47 975.046 2720.42 977.793 2743.47C977.882 2745.01 981.817 2848.24 991.549 3153.74L978.275 3154.15Z" fill="#177D74"/>
<path d="M273.56 1478.25C273.56 1478.25 164.984 1536.35 125.273 1677.22C125.273 1677.22 281.77 1465.92 483.005 1543.9C483.005 1543.9 365.974 1417.63 273.56 1478.25Z" fill="#177D74"/>
<path d="M244.576 1498.05C244.576 1498.05 471.691 1391.72 513.778 1801.19C539.472 2051.21 651.04 2222.47 908.416 2279.67C908.416 2279.67 1434.6 1791.28 651.048 1449.24C651.048 1449.24 558.894 1413.8 487.727 1449.24C487.727 1449.24 328.935 1425.04 244.576 1498.05Z" fill="#91B3FA"/>
<path d="M508.158 1461.79C604.069 1536.67 757.671 1676.72 819.454 1781.05C920.621 1947.08 923.13 2238.71 935.921 2661.59C946.59 2968.45 948.973 3027.76 946.619 3107.17C933.59 3005.87 931.348 2929.83 916.456 2662.42C875.757 1955.13 911.541 1874.22 668.041 1616.56C617.261 1562.62 563.556 1511.29 508.158 1461.79Z" fill="#C5D7FC"/>
<path d="M1750.59 1956.37C1750.59 1956.37 1824.95 2007.06 1842.78 2112.52C1842.78 2112.52 1745.59 1946.77 1593.28 1987.69C1593.28 1987.69 1688.2 1905.1 1750.59 1956.37Z" fill="#177D74"/>
<path d="M1770.11 1973.02C1770.11 1973.02 1613.41 1878 1550.82 2172.23C1512.6 2351.87 1418.15 2467.58 1226.69 2489.01C1226.69 2489.01 882.558 2093.04 1478.6 1905.78C1478.6 1905.78 1548.33 1887.24 1597.27 1918.55C1597.27 1918.55 1714.53 1913.38 1770.11 1973.02Z" fill="#1C9585"/>
<path d="M1581.43 1926.07C1488.58 1972.56 1389.13 2048.68 1338.22 2144.2C1214.78 2387.29 1204.36 2770.26 1159.25 2973.4C1162.15 2903.53 1201.27 2544.35 1237.81 2383.76C1273.63 2228.08 1321.89 2151.01 1326.91 2138.31C1332.97 2127.23 1339.42 2116.33 1346.8 2106.12C1401.84 2027.75 1494.3 1964.61 1581.43 1926.07Z" fill="#177D74"/>
<path d="M650.053 2409.14C650.053 2409.14 1029.6 2411.72 1085.3 2572.87C1157.88 2549.42 1192.59 2399.1 1056.95 2310.02C921.318 2220.95 652.072 2348.4 650.053 2409.14Z" fill="#7D97F4"/>
<path d="M637.9 2293.82C637.9 2293.82 498.217 2255.36 423.316 2350.51C306.916 2498.37 427.37 2892.65 581.218 2893.04C687.388 2893.32 757.953 2615.56 805.927 2532.7C872.728 2417.31 929.418 2322.77 1056.95 2310.01C1056.95 2310.02 868.69 2192.6 637.9 2293.82Z" fill="#91B3FA"/>
<path d="M637.67 2293.76C636.445 2293.44 626.934 2290.97 612.161 2288.92C460.919 2410.24 556.711 2712.28 557.431 2726.58C550.438 2673.82 506.881 2514 565.3 2377.37C575.746 2349.57 610.149 2304.93 637.67 2293.76Z" fill="#C5D7FC"/>
<path d="M1016.92 3128.32L1003.87 3125.85C1074.83 2748.91 1085.49 2557.66 1085.59 2555.77L1086.13 2553.46C1099.38 2523.16 1100.6 2495.28 1089.78 2470.59C1068.73 2422.62 1008.84 2401.52 1008.24 2401.32L1012.54 2388.76C1015.23 2389.67 1078.45 2411.86 1101.9 2465.16C1114.18 2493.11 1113.13 2524.23 1098.77 2557.66C1097.75 2574.59 1085.09 2766.14 1016.92 3128.32Z" fill="#177D74"/>
<path d="M1148.2 3386.02H926.812C903.887 3386.02 884.265 3369.58 880.256 3347.01L807.523 2937.8H1267.5L1194.77 3347.01C1190.75 3369.58 1171.13 3386.02 1148.2 3386.02Z" fill="#F5E1D3"/>
<path d="M1302.28 2902.2H772.734V3014.93H1302.28V2902.2Z" fill="#DFC5B6"/>
<path d="M1305.83 2734.97C1305.83 2734.97 1044.24 2657.93 972.477 2757.2C927.428 2726 934.771 2615.4 1046.55 2582.3C1158.34 2549.21 1317.05 2692.78 1305.83 2734.97Z" fill="#177D74"/>
<path d="M1338.13 2658.19C1338.13 2658.19 1442.19 2660.74 1473.95 2741.74C1523.3 2867.6 1265.14 3052.96 1265.14 3052.96C1265.14 3052.96 1266.97 2849.9 1243.65 2785.19C1195.11 2650.46 1131.62 2617.57 1046.55 2582.31C1046.55 2582.31 1200.42 2540.64 1338.13 2658.19Z" fill="#1C9585"/>
<path d="M1338.3 2658.19C1339.22 2658.22 1346.27 2658.5 1356.85 2660.16C1433.08 2771.22 1310.46 2957.68 1303.61 2972.54C1346.88 2889.83 1391.29 2789.89 1363.73 2700.48C1358.51 2686.49 1349.88 2667.52 1338.3 2658.19Z" fill="#177D74"/>
<path d="M951.163 1330.05L599.696 1712V2483.42" stroke="#59504C" stroke-width="1.8342" stroke-miterlimit="10"/>
<path d="M994.786 1349.77L643.327 1731.72V2503.14" stroke="#59504C" stroke-width="1.8342" stroke-miterlimit="10"/>
<path d="M936.448 1431.04L1054.15 1313.34L1004.09 1263.28C982.982 1242.17 948.757 1242.17 927.651 1263.28L886.388 1304.54C865.282 1325.64 865.282 1359.87 886.388 1380.98L936.448 1431.04Z" fill="#AEBFF8"/>
<path d="M1005.89 1265.09L888.185 1382.8L936.433 1431.05L1054.14 1313.34L1005.89 1265.09Z" fill="#7D97F4"/>
<path d="M973.353 1350.24C1054.61 1268.98 1192.49 1275.12 1281.3 1363.93L987.043 1658.19C898.23 1569.37 892.097 1431.5 973.353 1350.24Z" fill="#AEBFF8"/>
<path d="M2439.05 1650.12L1822.85 1600.7C1806.79 1599.42 1791.43 1602.03 1777.47 1607.55L1777.48 1607.5L1776.17 1608.09C1773.87 1609.04 1771.6 1610.02 1769.38 1611.13L1666.65 1657.12L1713.14 2213.08L2489.84 2583.83L2532.53 1751.37C2532.52 1698.43 2491.84 1654.36 2439.05 1650.12Z" fill="#4042E2"/>
<path d="M2374.16 2540.6L1554.78 2474.89L1592.68 1763.88C1600.73 1690.52 1665.66 1636.86 1739.22 1642.76L2286.46 1686.64C2363.14 1692.79 2419.58 1761.08 2411.18 1837.55L2374.16 2540.6Z" fill="#484AF0"/>
<path d="M1426.83 2024.1C1426.83 2024.1 1520.15 1803.68 1563.5 1713.6C1622.38 1591.24 1809.27 1622.43 1757.08 1792.36C1704.89 1962.3 1547.63 2294.58 1498.97 2285.72C1402.82 2268.19 1426.83 2024.1 1426.83 2024.1Z" fill="#FE7062"/>
<path d="M1641.06 2273.83C1641.06 2273.83 1617.18 2174.85 1595.17 2014.69C1577.73 1887.85 1637.07 1660.55 1826.48 1651.45C1952.79 1645.39 2146.29 1637.11 2152.8 1880.42C2153.88 1920.59 2107.4 2106.57 2081.42 2231.48C2067.49 2298.43 2089.92 2348.49 2089.92 2348.49C2089.92 2348.49 1777.96 2340 1641.06 2273.83Z" fill="#FE7062"/>
<path d="M1838.74 1710.42C1838.74 1710.42 1853.32 1677.82 1867.05 1681.65C1880.77 1685.47 1941.91 1688.02 1941.91 1688.02C1941.91 1688.02 1879.71 1693.36 1869.42 1702.15C1859.12 1710.94 1834.92 1717.9 1838.74 1710.42Z" fill="#7E3728"/>
<path d="M1959.46 3283.9L1896.77 3245.88L1838.71 3283.9H1498.97C1507.41 2945.58 1538.59 2428.73 1649.57 2345.2L1641.06 2273.84C1735.18 2308.8 1901.61 2276.37 2081.42 2231.49L2089.92 2315.81C2089.92 2315.81 2271.37 2291.48 2300.09 2882.49C2308.53 3056.29 2312.67 3184.17 2314.3 3283.9H1959.46V3283.9Z" fill="#D3594D"/>
<path d="M2089.92 2315.8C2089.92 2315.8 1985.98 2361.95 1869.76 2377.32C1792.9 2387.48 1710.68 2384.19 1649.58 2345.2" stroke="white" stroke-width="1.1316" stroke-miterlimit="10" stroke-linecap="round"/>
<path d="M2037.93 2397.82C2037.93 2397.82 2095.69 2576.91 2199.64 2559.01C2199.64 2559.01 2271.96 2876.48 2256.63 3283.9" stroke="white" stroke-width="1.1316" stroke-miterlimit="10" stroke-linecap="round"/>
<path d="M1655.67 2409.76C1655.67 2409.76 1645.85 2570.95 1558.32 2575.42" stroke="white" stroke-width="1.1316" stroke-miterlimit="10" stroke-linecap="round"/>
<path d="M1674.71 1415.03C1676.69 1415.03 1678.31 1413.42 1678.31 1411.43C1678.31 1409.44 1676.69 1407.83 1674.71 1407.83C1672.72 1407.83 1671.11 1409.44 1671.11 1411.43C1671.11 1413.42 1672.72 1415.03 1674.71 1415.03Z" fill="#7E3728"/>
<path d="M2185.71 2584.19C2185.71 2584.19 2255 2977.42 2233.92 3283.89" stroke="#1C9585" stroke-width="0.9507" stroke-miterlimit="10" stroke-dasharray="4.07 4.07"/>
<path d="M2151.16 1690.17C2029.92 1607.04 1906.91 1683.67 1983.4 1844.14C2059.88 2004.62 2306.28 2291.57 2353.11 2275.68C2382.88 2265.58 2433.63 2266.9 2433.63 2231.48C2433.63 2121.85 2233.61 1746.7 2151.16 1690.17Z" fill="#FE7062"/>
<path d="M2045.48 1655.31C1989.25 1632.58 1952.44 1578.01 1952.44 1517.36V1408.62L1809.02 1459.29L1799.84 1598.34C1798.43 1619.62 1781.17 1636.39 1759.85 1637.17L1683.89 1639.96C1683.89 1639.96 1705.94 1826.79 1821.24 1826.79C1953.17 1826.79 2057.82 1656.31 2057.82 1656.31L2045.48 1655.31Z" fill="#B34C2A"/>
<path d="M2070.2 1237.29C2070.2 1346.25 1981.88 1434.57 1872.93 1434.57C1763.97 1434.57 1689.41 1468.26 1640.73 1320.81C1554.04 1058.19 1763.97 1040.01 1872.93 1040.01C1981.88 1040.01 2070.2 1128.34 2070.2 1237.29Z" fill="#691A12"/>
<path d="M1787.17 1380.95C1758.88 1321.56 1727.24 1257.97 1724.98 1191.08C1724.91 1189.18 1725.14 1187.47 1725.51 1185.86C1724.19 1107.42 1800.57 1066.35 1869.59 1043.62C1873.28 1042.4 1877 1041.33 1880.71 1040.21C1878.13 1040.11 1875.54 1040.01 1872.93 1040.01C1763.98 1040.01 1554.04 1058.19 1640.74 1320.81C1681.07 1442.97 1739.19 1440.8 1819.9 1436.46C1807.37 1419.11 1796.47 1400.46 1787.17 1380.95Z" fill="#590804"/>
<path d="M1790.76 1536.72C1860.38 1533.38 1966.84 1442.33 1963.49 1372.7C1963.49 1372.7 1970.08 1265.64 1948.88 1233.67C1912.06 1178.16 1772.48 1179.39 1717.53 1191.88C1633.34 1211.01 1656.5 1367.48 1656.5 1367.48C1656.5 1497.57 1760.32 1538.19 1790.76 1536.72Z" fill="#B34C2A"/>
<path d="M1943.46 1434.29C1943.46 1434.29 1943.82 1425.29 1943.91 1411.63L1809.02 1459.29L1799.84 1598.34C1799.7 1600.35 1799.3 1602.28 1798.89 1604.21C1799.7 1604.24 1800.48 1604.26 1801.2 1604.22C1859.19 1601.44 1946.97 1507.21 1943.46 1434.29Z" fill="#7E3728"/>
<path d="M1785.36 1553.67C1855.62 1550.29 1962.89 1455.13 1959.38 1382.21C1959.38 1382.21 1965.84 1270.1 1944.38 1236.58C1907.11 1178.38 1766.25 1179.41 1710.82 1192.39C1625.89 1212.27 1649.55 1376.18 1649.55 1376.18C1649.79 1512.42 1754.64 1555.16 1785.36 1553.67Z" fill="#B34C2A"/>
<path d="M2009.71 1342.19C2009.69 1372.14 1983.02 1397.88 1947.12 1399.74L1942.29 1291.38C1978.18 1289.51 2009.76 1288.44 2009.71 1342.19Z" fill="#BD4A24"/>
<path d="M1972.22 1325.21C1971.79 1321.13 1976.97 1319.16 1979.43 1322.43C1983.51 1327.84 1986.58 1335.64 1983.14 1345.51C1978.28 1359.48 1967.69 1373.4 1962.21 1367.96C1956.72 1362.53 1962.3 1363.61 1969.67 1345.51C1972.59 1338.35 1972.82 1331.02 1972.22 1325.21Z" fill="#7E3728"/>
<path d="M1934.96 1157.23C1782.34 1073.01 1725.51 1185.86 1725.51 1185.86C1725.51 1185.86 1725.69 1211.82 1809.44 1253.04C1832.36 1264.32 1860.11 1272.35 1886.71 1278.03C1914.16 1283.89 1935.99 1304.63 1942.29 1331.99L1943.34 1325.1C1946.42 1304.81 1964.43 1290.25 1984.93 1291.28C1984.93 1291.28 1982.94 1183.7 1934.96 1157.23Z" fill="#691A12"/>
<path d="M1837.95 1365.56C1837.95 1356.83 1832.81 1349.75 1826.48 1349.75C1820.15 1349.75 1815.01 1356.83 1815.01 1365.56" stroke="black" stroke-width="1.7" stroke-miterlimit="10"/>
<path d="M1710.91 1365.56C1710.91 1356.83 1705.77 1349.75 1699.44 1349.75C1693.1 1349.75 1687.97 1356.83 1687.97 1365.56" stroke="black" stroke-width="1.7" stroke-miterlimit="10"/>
<path d="M1854.15 1321.98C1854.15 1321.98 1813.93 1299.6 1776.68 1321.98" stroke="#7E3728" stroke-width="1.7" stroke-miterlimit="10"/>
<path d="M1660.7 1321.98C1672.93 1314.63 1685.48 1312.11 1696.82 1312.04C1730.23 1311.82 1757.41 1340.96 1750.99 1373.74C1750.5 1376.26 1749.81 1378.8 1748.9 1381.35C1737.94 1412.03 1727.54 1421.47 1749.9 1424.21" stroke="#7E3728" stroke-width="1.7" stroke-miterlimit="10"/>
<path d="M1765.87 1367.15C1765.87 1367.15 1753.98 1354.32 1745.4 1363.96" stroke="white" stroke-width="2" stroke-miterlimit="10"/>
<path d="M1862.69 1401.15C1862.69 1403.96 1864.96 1406.23 1867.77 1406.23C1870.57 1406.23 1872.84 1403.96 1872.84 1401.15C1872.84 1398.35 1870.57 1396.08 1867.77 1396.08C1864.96 1396.08 1862.69 1398.36 1862.69 1401.15Z" fill="#7E3728"/>
<path d="M1842.5 1417.22C1843.7 1417.22 1844.68 1416.24 1844.68 1415.04C1844.68 1413.83 1843.7 1412.85 1842.5 1412.85C1841.29 1412.85 1840.31 1413.83 1840.31 1415.04C1840.31 1416.24 1841.29 1417.22 1842.5 1417.22Z" fill="#7E3728"/>
<path d="M1867.76 1428.67C1867.76 1431.13 1869.76 1433.13 1872.21 1433.13C1874.67 1433.13 1876.67 1431.13 1876.67 1428.67C1876.67 1426.22 1874.67 1424.22 1872.21 1424.22C1869.76 1424.22 1867.76 1426.21 1867.76 1428.67Z" fill="#7E3728"/>
<path d="M1893.85 1410.3C1895.21 1410.3 1896.32 1409.19 1896.32 1407.83C1896.32 1406.46 1895.21 1405.36 1893.85 1405.36C1892.48 1405.36 1891.38 1406.46 1891.38 1407.83C1891.38 1409.19 1892.48 1410.3 1893.85 1410.3Z" fill="#7E3728"/>
<path d="M1841.49 1441.02C1841.49 1443.08 1843.16 1444.76 1845.23 1444.76C1847.29 1444.76 1848.96 1443.08 1848.96 1441.02C1848.96 1438.96 1847.29 1437.29 1845.23 1437.29C1843.16 1437.29 1841.49 1438.96 1841.49 1441.02Z" fill="#7E3728"/>
<path d="M1813.94 1404.49C1813.94 1406.34 1815.43 1407.83 1817.28 1407.83C1819.12 1407.83 1820.61 1406.34 1820.61 1404.49C1820.61 1402.65 1819.12 1401.15 1817.28 1401.15C1815.44 1401.15 1813.94 1402.65 1813.94 1404.49Z" fill="#7E3728"/>
<path d="M1820.61 1427.33C1820.61 1424.13 1818.02 1421.53 1814.82 1421.53C1811.62 1421.53 1809.02 1424.12 1809.02 1427.33C1809.02 1430.54 1811.62 1433.13 1814.82 1433.13C1818.02 1433.13 1820.61 1430.53 1820.61 1427.33Z" fill="#7E3728"/>
<path d="M1701.91 1408.62C1704.37 1408.62 1706.35 1406.63 1706.35 1404.18C1706.35 1401.73 1704.37 1399.74 1701.91 1399.74C1699.46 1399.74 1697.48 1401.73 1697.48 1404.18C1697.48 1406.63 1699.46 1408.62 1701.91 1408.62Z" fill="#7E3728"/>
<path d="M1888.58 1360.8H1900.27L1952.44 1305.21" stroke="white" stroke-width="2" stroke-miterlimit="10"/>
<path d="M1841.34 1427.05C1874.41 1419.27 1894.92 1386.16 1887.14 1353.09C1879.36 1320.02 1846.25 1299.51 1813.18 1307.29C1780.11 1315.07 1759.6 1348.18 1767.38 1381.25C1775.16 1414.32 1808.27 1434.82 1841.34 1427.05Z" stroke="white" stroke-width="2" stroke-miterlimit="10"/>
<path d="M1740.87 1387.4C1753.81 1355.98 1738.83 1320.03 1707.42 1307.09C1676.01 1294.16 1640.06 1309.14 1627.12 1340.56C1614.18 1371.97 1629.16 1407.93 1660.57 1420.86C1691.98 1433.8 1727.94 1418.82 1740.87 1387.4Z" stroke="white" stroke-width="2" stroke-miterlimit="10"/>
<path d="M1406.69 1681.34C1406.69 1681.34 1393.52 1594.1 1383.51 1575.74C1373.19 1556.8 1328.41 1518.94 1322.04 1519.56C1316.1 1520.15 1317.86 1536.58 1321.24 1543.41C1326.3 1553.6 1359.2 1575.37 1350.63 1582.85L1299.39 1540.64C1299.39 1540.64 1289 1531.01 1297.99 1522.2C1303.54 1516.78 1318.33 1529.63 1320.02 1520.64C1323.07 1504.39 1286.33 1498.24 1276.45 1507.77C1260.71 1522.95 1282.82 1554.24 1278.34 1557.26C1272.92 1560.9 1217.61 1483.69 1210.54 1490.78C1199.84 1501.54 1260.28 1574.22 1260.28 1574.22C1254.82 1579.62 1200.82 1507.59 1192.67 1516.75C1186.6 1523.56 1244.91 1587.44 1244.91 1587.44C1239.67 1592.36 1203.94 1547.01 1201.01 1555.6C1198.08 1564.19 1220.72 1598.03 1238.18 1610.53C1259.01 1625.43 1331.32 1653.2 1331.32 1653.2L1348.49 1699.09C1348.49 1699.09 1390.95 1707.54 1406.69 1681.34Z" fill="#BF5A39"/>
<path d="M2489.84 1712.03C2489.84 1712.03 2507.35 1616.1 2517.36 1597.74C2527.69 1578.8 2572.46 1540.93 2578.84 1541.56C2584.78 1542.14 2583.02 1558.58 2579.63 1565.41C2574.58 1575.6 2541.67 1597.36 2550.25 1604.85L2601.49 1562.63C2601.49 1562.63 2611.87 1553 2602.88 1544.2C2597.34 1538.77 2582.54 1551.63 2580.85 1542.64C2577.81 1526.39 2614.55 1520.23 2624.43 1529.77C2640.17 1544.96 2618.06 1576.25 2622.54 1579.26C2627.95 1582.91 2683.27 1505.69 2690.33 1512.79C2701.04 1523.55 2640.6 1596.23 2640.6 1596.23C2646.05 1601.62 2700.05 1529.6 2708.21 1538.76C2714.27 1545.57 2655.97 1609.45 2655.97 1609.45C2661.2 1614.36 2696.93 1569.01 2699.86 1577.6C2702.8 1586.19 2680.15 1620.04 2662.69 1632.53C2641.86 1647.44 2569.55 1675.2 2569.55 1675.2L2553.56 1728.52C2553.56 1728.52 2509.33 1738.26 2489.84 1712.03Z" fill="#BF5A39"/>
<path d="M1565.8 2183C1577.31 2099.91 1521.47 1972.88 1521.47 1972.88L1410.59 1669.37C1388.04 1660.03 1340.19 1670.56 1316.91 1691.23L1317.23 1733.84C1316.24 1758.15 1317.62 1791.94 1320.79 1831.01L1320.8 1831.14L1320.8 1831.15C1330.76 1953.89 1358.12 2127.92 1383.83 2219.12C1425.23 2365.98 1548.88 2305.19 1565.8 2183Z" fill="#FE7062"/>
<path d="M1879.49 2374.85L1867.46 2283.85" stroke="white" stroke-width="1.1316" stroke-miterlimit="10"/>
<path d="M2459.56 2220.79C2511.53 2154.95 2522.63 2037.85 2522.63 2037.85L2580.85 1725.85C2582.88 1689.28 2493.54 1669.48 2478.93 1691.19C2478.93 1691.19 2346.93 2064.87 2322.96 2156.54C2284.33 2304.15 2383.13 2317.61 2459.56 2220.79Z" fill="#FE7062"/>
<path d="M2071.83 995.076C2055.3 1046.22 1976.31 1148.98 1925.15 1132.44C1874.01 1115.92 1870.08 986.368 1886.62 935.216C1903.14 884.072 1958.01 856.01 2009.15 872.535C2060.3 889.069 2088.36 943.925 2071.83 995.076Z" fill="#691A12"/>
<path d="M1622.38 2087.18C1633.59 2095.2 1645.84 2101.59 1658.61 2106.49C1671.33 2111.49 1684.63 2114.93 1698.13 2116.51C1711.61 2118.06 1725.3 2118.18 1738.66 2115.86C1745.43 2115.19 1751.89 2112.99 1758.49 2111.52C1765.26 2109.5 1772.22 2108.18 1779.24 2107.52C1793.31 2106.31 1807.5 2107.9 1821.02 2111.58C1827.87 2113.37 1834.28 2116.03 1840.75 2117.97C1847.28 2119.96 1853.87 2121.73 1860.52 2123.3C1887.19 2129.43 1914.75 2131.51 1942.29 2131.32C1914.84 2133.68 1886.93 2132.63 1859.68 2127.24C1852.87 2125.91 1846.1 2124.31 1839.44 2122.3C1832.7 2120.35 1826.31 2117.79 1819.8 2116.18C1806.72 2112.78 1793.1 2111.45 1779.71 2112.73C1773.01 2113.29 1766.37 2114.47 1759.91 2116.32C1753.07 2117.77 1746.37 2119.95 1739.37 2120.58C1725.55 2122.73 1711.37 2122.71 1697.59 2120.49C1670.04 2116.23 1643.64 2104.79 1622.38 2087.18Z" fill="#C2554A"/>
<path d="M1766.18 1473.04C1766.18 1480.64 1762.99 1486.79 1759.06 1486.79C1755.14 1486.79 1751.95 1480.64 1751.95 1473.04C1751.95 1465.45 1755.14 1459.29 1759.06 1459.29C1762.98 1459.29 1766.18 1465.45 1766.18 1473.04Z" fill="#7E3728"/>
<path d="M1981.36 1629.44C1916.48 1666.45 1836.87 1666.45 1771.98 1629.44L1794.97 1573C1841.62 1599.6 1905.29 1604.45 1951.93 1577.85C1961.74 1595.05 1971.55 1612.24 1981.36 1629.44Z" fill="#D3594D"/>
<path d="M2000.82 1608.3C2034.41 1630.36 2038.94 1682.8 2038.94 1682.8C2038.94 1682.8 1989.02 1699.45 1955.44 1677.39C1921.85 1655.32 1917.31 1602.89 1917.31 1602.89C1917.31 1602.89 1967.23 1586.23 2000.82 1608.3Z" fill="#D3594D"/>
<path d="M2025.51 1637.3C2019.87 1626.31 2011.97 1615.63 2000.81 1608.29C1976.97 1592.63 1944.98 1596.47 1928.38 1600.02C1927.75 1600.77 1927.34 1601.28 1927.34 1601.28C1927.34 1601.28 1959.91 1642.6 2000.1 1642.6C2009.05 1642.61 2017.59 1640.5 2025.51 1637.3Z" fill="#C2554A"/>
<path d="M1964.46 1385.59V1459.29" stroke="#F0E1D3" stroke-width="1.3757" stroke-miterlimit="10" stroke-linecap="round"/>
<path d="M1964.46 1488.07C1974.26 1488.07 1982.21 1475.19 1982.21 1459.29C1982.21 1443.39 1974.26 1430.51 1964.46 1430.51C1954.67 1430.51 1946.72 1443.39 1946.72 1459.29C1946.72 1475.19 1954.67 1488.07 1964.46 1488.07Z" fill="#FE7062"/>
<path d="M1968.46 1535.77C2004.65 1518.31 2051.96 1541.38 2051.96 1541.38C2051.96 1541.38 2040.58 1592.76 2004.38 1610.22C1968.18 1627.68 1920.88 1604.62 1920.88 1604.62C1920.88 1604.62 1932.26 1553.23 1968.46 1535.77Z" fill="#D3594D"/>
<path d="M3025.04 2551.36H637.67V3752.39H3025.04V2551.36Z" fill="#7D97F4"/>
<path d="M3025.04 2551.36H637.67V2656.01H3025.04V2551.36Z" fill="#4042E2"/>
<path d="M3083.5 2463.78H582.264V2577.39H3083.5V2463.78Z" fill="#7D97F4"/>
<path d="M1024.24 2815.05H1580.68V2758.55H938.958V3657.94H1024.24V2815.05Z" fill="#4042E2"/>
<path d="M2164.52 2815.05H2720.96V2758.55H2079.25V3657.94H2164.52V2815.05Z" fill="#4042E2"/>
<path d="M2076.57 2463.78H1205.06V2409.76H1998.38C2033.15 2409.76 2064.28 2431.27 2076.57 2463.78Z" fill="#1A0F91"/>
<path d="M1671.67 1992.77C1662.52 1960.96 1633.42 1939.04 1600.32 1939.04H945.031C928.356 1939.04 913.783 1946.19 903.642 1957.29L875.549 1985.53L890.108 1983.43C888.23 1992.11 888.348 2001.41 891.028 2010.74L1771.98 2463.78H1803.4L1671.67 1992.77Z" fill="white"/>
<path d="M1771.98 2463.78H986.182L863.797 2037.98C853.478 2002.07 880.427 1966.27 917.792 1966.27H1573.08C1606.18 1966.27 1635.28 1988.18 1644.43 2020L1771.98 2463.78Z" fill="#1A0F91"/>
<path d="M757.708 2411.37H583.318V2463.79H757.708V2411.37Z" fill="#1A0F91"/>
<path d="M1362.24 2218.56C1342.28 2170.5 1297.99 2139.12 1263.31 2148.47C1228.63 2157.82 1216.71 2204.36 1236.68 2252.41C1256.64 2300.47 1300.94 2331.85 1335.61 2322.5C1370.28 2313.16 1382.22 2266.61 1362.24 2218.56Z" fill="#91B3FA"/>
<path d="M3300.58 2069.7C3268.64 2171.27 3240.46 2274.05 3214.37 2377.4C3188.42 2480.79 3165.18 2584.93 3144.64 2689.72C3124.54 2794.61 3107.92 2900.27 3094.85 3006.65C3082.99 3113.18 3075.52 3220.49 3075.09 3328.63L3138.26 3326.78C3133.51 3222.05 3135.56 3116.51 3142.05 3010.97C3149.74 2905.49 3161 2800.04 3175.79 2694.94C3191.04 2589.91 3209.03 2485.15 3229.78 2380.88C3250.67 2276.63 3273.71 2172.71 3300.58 2069.7Z" fill="#6787F8"/>
<path d="M2845.92 2798.33C2845.92 2798.33 3017.3 2963.64 3049.54 3296.94C3065.64 3463.4 3040.27 3617.07 3010.83 3729.21" stroke="#177D74" stroke-width="4.1825" stroke-miterlimit="10"/>
<path d="M2578.21 2347.57C2578.21 2347.57 2744.26 2564.84 2765.48 2827.11" stroke="#177D74" stroke-width="3.1369" stroke-miterlimit="10"/>
<path d="M2961.29 2317.54C2961.29 2317.54 2748.49 2863.64 2961.29 3666.13" stroke="#177D74" stroke-width="4.1825" stroke-miterlimit="10"/>
<path d="M2578.21 2347.57C2578.21 2347.57 2659.2 2344.49 2686.79 2269.36C2686.79 2269.36 2632.32 2284.22 2630.12 2244.3C2627.93 2204.38 2622.62 2155.54 2547.43 2146.6C2472.25 2137.64 2407.43 2140.6 2382.58 2122.71C2382.58 2122.71 2492.06 2192.46 2494.77 2224.95C2497.49 2257.45 2495.76 2282.18 2486.22 2276.55C2476.67 2270.91 2483.38 2227.88 2441.39 2206.33C2399.39 2184.77 2336.07 2184.1 2336.07 2184.1C2336.07 2184.1 2416.48 2207.09 2428.29 2234.01C2440.08 2260.93 2415.7 2254.26 2397.11 2235.57C2378.53 2216.88 2309.6 2153.68 2205.32 2170.05L2138.48 2184.04L2122.61 2197.85C2122.61 2197.85 2239.26 2182.34 2273.03 2197.12C2306.8 2211.89 2349.6 2239.72 2336.37 2251.22C2323.15 2262.73 2257.84 2201.03 2224.19 2202.42C2190.54 2203.81 2102.53 2182.78 2012.83 2293.36C2012.83 2293.36 2057.84 2361.11 2087.76 2395.49C2117.67 2429.88 2205.33 2402.42 2238.97 2401.03C2272.63 2399.64 2359.09 2442.93 2380.42 2422.04C2401.76 2401.16 2469.78 2316.41 2502.4 2329.86C2535.01 2343.31 2416.94 2397.24 2416.94 2397.24C2416.94 2397.24 2453.92 2383.65 2483.55 2404.35C2513.18 2425.05 2606.83 2436.53 2656.75 2397.74C2656.75 2397.76 2654.04 2365.26 2578.21 2347.57Z" fill="#91B3FA"/>
<path d="M2617.21 2338.63C2598.74 2345.72 2583.23 2347.22 2579.24 2347.5C2438.61 2295.04 2223.01 2286.35 2080.24 2293.74C2235.58 2279.15 2471.15 2279.9 2617.21 2338.63Z" fill="#C5D7FC"/>
</g>
<path d="M2988.18 2283.44C2988.18 2283.44 2948.85 2140.41 3034.66 2120.75C3120.48 2101.08 3197.35 2111.81 3276.02 2202.09C3276.02 2202.09 3141.93 2177.96 3116.91 2217.29C3091.88 2256.62 3111.54 2261.98 3138.36 2256.62C3165.18 2251.26 3292.11 2188.68 3338.6 2251.26C3385.08 2313.84 3390.44 2338.86 3390.44 2338.86C3390.44 2338.86 3288.54 2295.95 3240.27 2295.95C3192 2295.95 3140.15 2301.31 3138.37 2313.83C3136.58 2326.35 3183.92 2334.42 3259.94 2326.35C3335.96 2318.27 3408.33 2358.53 3420.84 2388.92C3433.36 2419.31 3435.14 2492.61 3435.14 2492.61C3435.14 2492.61 3352.9 2401.43 3272.45 2381.76C3192 2362.09 3161.61 2358.52 3158.04 2376.4C3154.46 2394.28 3224.18 2405 3310 2444.34C3395.81 2483.67 3460.17 2515.85 3445.87 2585.57C3431.57 2655.3 3395.81 2717.87 3395.81 2717.87C3395.81 2717.87 3376.15 2639.2 3327.87 2608.81C3279.6 2578.41 3210.03 2542.66 3213.53 2564.12C3217.03 2585.57 3361.84 2717.87 3361.84 2717.87C3361.84 2717.87 3295.69 2776.87 3286.75 2798.32C3286.75 2798.32 3197.36 2778.65 3184.85 2767.93C3172.33 2757.2 3161.61 2601.66 3129.43 2601.66C3097.25 2601.66 3156.25 2750.05 3156.25 2750.05C3156.25 2750.05 3091.89 2746.47 3074 2691.05C3056.13 2635.63 3095.46 2528.36 3079.37 2514.06C3063.28 2499.75 3025.74 2556.97 3040.04 2637.41C3054.35 2717.87 3074 2725.02 3074 2725.02C3074 2725.02 2952.44 2653.5 2950.65 2617.75C2948.86 2581.99 2989.98 2491.44 3016.79 2455.37C3043.61 2419.3 2995.34 2397.85 2981.04 2426.45C2966.74 2455.06 2914.89 2549.23 2916.68 2594.21C2916.68 2594.21 2834.45 2555.17 2843.38 2506.9C2852.32 2458.63 2947.08 2396.06 2943.5 2369.24C2939.93 2342.42 2863.05 2400.25 2836.24 2455.36C2809.42 2510.47 2811.21 2528.35 2811.21 2528.35C2811.21 2528.35 2757.58 2406.78 2766.52 2379.96C2775.45 2353.14 2895.24 2328.11 2916.69 2313.81C2938.14 2299.5 2868.42 2261.96 2829.09 2290.56C2789.75 2319.17 2777.24 2344.19 2777.24 2344.19C2777.24 2344.19 2761.15 2219.05 2795.11 2199.38C2829.09 2179.72 2898.8 2202.96 2930.99 2236.93C2963.15 2270.92 2995.32 2322.32 2988.18 2283.44Z" fill="#7D97F4"/>
<path d="M3051.03 2379.29L2967.76 2280.13L2967.82 2280.08C2982.91 2297.88 2992.39 2306.38 2988.17 2283.44C2988.17 2283.44 2987.8 2282.06 2987.21 2279.62L3060.49 2371.52L3100.83 2422.11C3114.09 2439.01 3128.31 2455.41 3140.17 2474.06C3152.07 2492.41 3161.97 2511.75 3171.39 2531.25C3180.89 2550.72 3189.28 2570.66 3197.57 2590.62C3213.78 2630.68 3228.56 2671.27 3241.71 2712.37C3227.18 2671.75 3211.04 2631.71 3193.54 2592.34C3184.61 2572.75 3175.59 2553.18 3165.53 2534.19C3155.54 2515.18 3145.09 2496.37 3132.89 2478.91C3120.95 2461.53 3106.43 2445.55 3092.66 2428.87L3051.03 2379.29Z" fill="#A8B9F8"/>
<path d="M2855.98 2706.57C2855.98 2706.57 2892.02 2573.96 3015.98 2607.11C3139.94 2640.26 3093.81 2777.19 3093.81 2777.19C3093.81 2777.19 3040.48 2715.93 3003.72 2722.42C2972.72 2727.89 2965.52 2759.89 3001.56 2768.54C3037.6 2777.19 3113.99 2807.46 3126.96 2870.88C3139.93 2934.31 3125.18 2973.21 3125.18 2973.21C3125.18 2973.21 3031.08 2824.76 2996.13 2842.06C2961.2 2859.35 3086.6 2973.22 3096.68 3012.14C3106.77 3051.06 3062.78 3146.19 2996.13 3202.41C2929.48 3258.62 2906.42 3281.68 2896.33 3309.07C2896.33 3309.07 2883.41 3106.74 2874.71 3062.59C2862.37 2999.88 2815.62 2929.98 2795.43 2945.83C2775.25 2961.69 2831.47 3049.61 2822.82 3149.07C2814.17 3248.53 2791.03 3322.04 2791.03 3322.04C2791.03 3322.04 2737.78 3329.25 2719.04 3365.28C2719.04 3365.28 2755.8 3186.55 2730.57 3077C2717.55 3020.45 2703.9 3004.93 2687.32 3012.14C2669.24 3020 2675.71 3085.58 2681.72 3126.91C2687.88 3169.21 2688.06 3212.23 2681.28 3254.44C2674.91 3294.11 2662.17 3335.88 2636.87 3356.64C2636.87 3356.64 2510.02 3315.56 2413.45 3359.52C2413.45 3359.52 2361.56 3264.38 2360.12 3239.88C2360.12 3239.88 2483.95 3138.72 2539.57 3089.97C2603.72 3033.76 2558.01 3019.15 2533.08 3030.88C2508.58 3042.41 2376.69 3118.8 2386.06 3201.68C2386.06 3201.68 2321.2 3127.45 2335.61 3077C2350.02 3026.55 2501.38 2955.93 2557.59 2942.96C2613.8 2929.99 2649.46 2895.73 2621.01 2885.3C2534.53 2853.59 2365.86 2964.58 2333.44 3029.44C2333.44 3029.44 2298.11 2909.8 2333.44 2830.53C2368.76 2751.25 2375.97 2716.66 2375.97 2716.66C2375.97 2716.66 2483.38 2774.89 2655.6 2723.87C2675.06 2718.1 2688.75 2689.99 2648.39 2679.9C2608.04 2669.81 2448.03 2663.32 2400.47 2684.95C2400.47 2684.95 2448.03 2591.26 2498.48 2585.49C2548.93 2579.72 2648.39 2641.7 2674.33 2622.97C2700.28 2604.23 2619.56 2573.2 2571.99 2585.11C2571.99 2585.11 2582.08 2527.83 2664.24 2523.51C2746.4 2519.19 2753.61 2514.86 2762.26 2506.21C2770.9 2497.56 2854.51 2519.18 2832.89 2647.47C2826.99 2682.47 2822.93 2703.73 2827.74 2713.78C2841.57 2742.6 2855.98 2706.57 2855.98 2706.57Z" fill="#1C9585"/>
<path d="M2855.98 2706.57C2855.98 2706.57 2892.02 2573.96 3015.98 2607.11C3139.94 2640.26 3093.81 2777.19 3093.81 2777.19C3093.81 2777.19 3040.48 2715.93 3003.72 2722.42C2972.72 2727.89 2965.52 2759.89 3001.56 2768.54C3037.6 2777.19 3113.99 2807.46 3126.96 2870.88C3139.93 2934.31 3125.18 2973.21 3125.18 2973.21C3125.18 2973.21 3031.08 2824.76 2996.13 2842.06C2961.2 2859.35 3086.6 2973.22 3096.68 3012.14C3106.77 3051.06 3062.78 3146.19 2996.13 3202.41C2929.48 3258.62 2906.42 3281.68 2896.33 3309.07C2896.33 3309.07 2883.41 3106.74 2874.71 3062.59C2862.37 2999.88 2815.62 2929.98 2795.43 2945.83C2775.25 2961.69 2831.47 3049.61 2822.82 3149.07C2814.17 3248.53 2791.03 3322.04 2791.03 3322.04C2791.03 3322.04 2737.78 3329.25 2719.04 3365.28C2719.04 3365.28 2755.8 3186.55 2730.57 3077C2717.55 3020.45 2703.9 3004.93 2687.32 3012.14C2669.24 3020 2675.71 3085.58 2681.72 3126.91C2687.88 3169.21 2688.06 3212.23 2681.28 3254.44C2674.91 3294.11 2662.17 3335.88 2636.87 3356.64C2636.87 3356.64 2510.02 3315.56 2413.45 3359.52C2413.45 3359.52 2361.56 3264.38 2360.12 3239.88C2360.12 3239.88 2483.95 3138.72 2539.57 3089.97C2603.72 3033.76 2558.01 3019.15 2533.08 3030.88C2508.58 3042.41 2376.69 3118.8 2386.06 3201.68C2386.06 3201.68 2321.2 3127.45 2335.61 3077C2350.02 3026.55 2501.38 2955.93 2557.59 2942.96C2613.8 2929.99 2649.46 2895.73 2621.01 2885.3C2534.53 2853.59 2365.86 2964.58 2333.44 3029.44C2333.44 3029.44 2298.11 2909.8 2333.44 2830.53C2368.76 2751.25 2375.97 2716.66 2375.97 2716.66C2375.97 2716.66 2483.38 2774.89 2655.6 2723.87C2675.06 2718.1 2688.75 2689.99 2648.39 2679.9C2608.04 2669.81 2448.03 2663.32 2400.47 2684.95C2400.47 2684.95 2448.03 2591.26 2498.48 2585.49C2548.93 2579.72 2648.39 2641.7 2674.33 2622.97C2700.28 2604.23 2619.56 2573.2 2571.99 2585.11C2571.99 2585.11 2582.08 2527.83 2664.24 2523.51C2746.4 2519.19 2753.61 2514.86 2762.26 2506.21C2770.9 2497.56 2854.51 2519.18 2832.89 2647.47C2826.99 2682.47 2822.93 2703.73 2827.74 2713.78C2841.57 2742.6 2855.98 2706.57 2855.98 2706.57Z" fill="#1C9585"/>
<path d="M2855.98 2706.57C2855.98 2706.57 2892.02 2573.96 3015.98 2607.11C3139.94 2640.26 3093.81 2777.19 3093.81 2777.19C3093.81 2777.19 3040.48 2715.93 3003.72 2722.42C2972.72 2727.89 2965.52 2759.89 3001.56 2768.54C3037.6 2777.19 3113.99 2807.46 3126.96 2870.88C3139.93 2934.31 3125.18 2973.21 3125.18 2973.21C3125.18 2973.21 3031.08 2824.76 2996.13 2842.06C2961.2 2859.35 3086.6 2973.22 3096.68 3012.14C3106.77 3051.06 3062.78 3146.19 2996.13 3202.41C2929.48 3258.62 2906.42 3281.68 2896.33 3309.07C2896.33 3309.07 2883.41 3106.74 2874.71 3062.59C2862.37 2999.88 2815.62 2929.98 2795.43 2945.83C2775.25 2961.69 2831.47 3049.61 2822.82 3149.07C2814.17 3248.53 2791.03 3322.04 2791.03 3322.04C2791.03 3322.04 2737.78 3329.25 2719.04 3365.28C2719.04 3365.28 2755.8 3186.55 2730.57 3077C2717.55 3020.45 2703.9 3004.93 2687.32 3012.14C2669.24 3020 2675.71 3085.58 2681.72 3126.91C2687.88 3169.21 2688.06 3212.23 2681.28 3254.44C2674.91 3294.11 2662.17 3335.88 2636.87 3356.64C2636.87 3356.64 2510.02 3315.56 2413.45 3359.52C2413.45 3359.52 2361.56 3264.38 2360.12 3239.88C2360.12 3239.88 2483.95 3138.72 2539.57 3089.97C2603.72 3033.76 2558.01 3019.15 2533.08 3030.88C2508.58 3042.41 2376.69 3118.8 2386.06 3201.68C2386.06 3201.68 2321.2 3127.45 2335.61 3077C2350.02 3026.55 2501.38 2955.93 2557.59 2942.96C2613.8 2929.99 2649.46 2895.73 2621.01 2885.3C2534.53 2853.59 2365.86 2964.58 2333.44 3029.44C2333.44 3029.44 2298.11 2909.8 2333.44 2830.53C2368.76 2751.25 2375.97 2716.66 2375.97 2716.66C2375.97 2716.66 2483.38 2774.89 2655.6 2723.87C2675.06 2718.1 2688.75 2689.99 2648.39 2679.9C2608.04 2669.81 2448.03 2663.32 2400.47 2684.95C2400.47 2684.95 2448.03 2591.26 2498.48 2585.49C2548.93 2579.72 2648.39 2641.7 2674.33 2622.97C2700.28 2604.23 2619.56 2573.2 2571.99 2585.11C2571.99 2585.11 2582.08 2527.83 2664.24 2523.51C2746.4 2519.19 2753.61 2514.86 2762.26 2506.21C2770.9 2497.56 2854.51 2519.18 2832.89 2647.47C2826.99 2682.47 2822.93 2703.73 2827.74 2713.78C2841.57 2742.6 2855.98 2706.57 2855.98 2706.57Z" fill="#91B3FA"/>
<path d="M2600.41 3125.99C2625.82 3078.16 2650.23 3029.76 2671.32 2980.05C2687.61 2942.81 2728.67 2798.19 2825.76 2704.47C2825.98 2708.24 2826.61 2711.36 2827.77 2713.79C2834.19 2727.21 2840.73 2726.52 2845.9 2721.99L2845.91 2722.01C2743.49 2808.31 2698.34 2950.7 2681.94 2984.8C2640.16 3074.24 2574.66 3184.19 2519.46 3267.01C2547.91 3220.84 2574.81 3173.73 2600.41 3125.99Z" fill="#C5D7FC"/>
<path d="M273.56 1478.25C273.56 1478.25 164.984 1536.35 125.273 1677.22C125.273 1677.22 281.77 1465.92 483.005 1543.9C483.005 1543.9 365.974 1417.64 273.56 1478.25Z" fill="#7D97F4"/>
<path d="M576.392 1433.97C548.344 1432.21 516.332 1434.99 487.712 1449.24C487.712 1449.24 328.928 1425.05 244.569 1498.05C244.569 1498.05 471.684 1391.72 513.771 1801.19C522.895 1889.97 542.925 1968.76 576.392 2036.11V1433.97Z" fill="#91B3FA"/>
<path d="M576.392 1518.01C551.982 1496.94 528.737 1477.86 508.158 1461.79C531.254 1482.42 553.971 1503.47 576.392 1524.81V1518.01Z" fill="#C5D7FC"/>
</g>
<defs>
<clipPath id="clip0_12_314">
<rect width="3712" height="3712" fill="white"/>
</clipPath>
</defs>
</svg>
