<svg width="4947" height="4947" viewBox="0 0 4947 4947" fill="none" xmlns="http://www.w3.org/2000/svg">
<path d="M4946.66 4946.66H0V-0.000203013H4946.66V4946.66Z" fill="#BBD0FC"/>
<mask id="mask0_11_6" style="mask-type:luminance" maskUnits="userSpaceOnUse" x="668" y="638" width="3637" height="3676">
<path d="M2218.63 4313.78C2161.49 4313.78 2105.21 4311.47 2049.97 4306.86C1841.97 4289.53 1423.45 4254.63 1096.68 3943.3C1047.69 3896.63 1003.1 3845.97 962.835 3791.9C989.595 3776.49 1015.19 3755.07 1037.44 3727.58C1076.96 3678.77 1142.82 3638.69 1209.64 3638.69C1292.31 3638.69 1376.44 3700.05 1413.92 3882.07C1415.05 3887.54 1419.83 3891.5 1425.41 3891.5C1432.67 3891.5 1438.19 3885.02 1436.99 3877.87C1424.97 3806.77 1354.53 3481.62 1070.88 3479.03C1068.62 3479.02 1066.34 3479.01 1064.1 3479.01C963.416 3479.01 878.828 3499.53 810.353 3527.39C670.263 3206.97 637.317 2819.75 697.809 2438.57C727.413 2553.54 794.163 2665.97 928.261 2743.17C1324.97 2971.55 1334.55 2868.25 1384.01 3270.37C1426.59 3616.46 1441.11 3826.93 1444.33 3878.85C1444.77 3885.98 1450.68 3891.5 1457.83 3891.5C1465.47 3891.5 1471.6 3885.21 1471.33 3877.57C1467.6 3768.59 1440.33 3048.5 1362.45 2696.29C1234.46 2117.41 947.8 2328.11 780.205 2089.19C809.887 1995.11 845.336 1902.83 886.295 1813.59C922.46 1868.42 974.559 1918.97 1047.45 1960.73C1395.93 2160.33 1481.61 2265.98 1479.03 2649.3C1476.67 2999.63 1497.76 3747.23 1501.4 3873.29C1501.69 3883.46 1510.03 3891.5 1520.2 3891.5C1530.56 3891.5 1538.97 3883.14 1539 3872.78C1539.47 3708.82 1541.77 2517.03 1511.89 2228.26C1478.2 1902.74 1273.22 1690.18 1125.43 1412.09C1138.85 1394.45 1152.56 1377.05 1166.53 1359.93C1198.17 1321.17 1306.45 1192.06 1480.52 1053.57C1339.2 1189.21 1251.9 1388.41 1395.93 1683.62C1645.53 2195.22 1556.93 2552.57 1574.13 2731.47C1590.07 2897.14 1606.83 3750.79 1609.23 3876.14C1609.39 3884.69 1616.37 3891.5 1624.93 3891.5C1633.76 3891.5 1640.85 3884.23 1640.64 3875.41C1637.16 3737.17 1612.47 2751.53 1612.01 2593.73C1611.53 2423.95 1569.53 1843.02 1721.27 1631.15C1859 1438.86 2062.6 1195.46 2067.93 727.192C2226.77 673.219 2403.91 638.766 2597.28 638.766C2602.81 638.766 2608.32 638.792 2613.88 638.846C3224.84 645.072 3653.67 992.765 3705.81 1036.07C3771.68 1090.79 3916.97 1220.83 4047.91 1427.11C4355.57 1911.82 4382.61 2588.46 4152.44 3130.47C4136.56 3167.85 4119.61 3204.23 4101.56 3239.78C4103.33 3092.13 4092.32 2937.83 4052.07 2802.86C4039.47 2760.58 4024.73 2724.33 4008.53 2692.98C4018.08 2612.05 3970.68 2568.25 3898.2 2553.97C3813.35 2483.14 3725.57 2461.77 3688.91 2395.01C3687.91 2393.19 3686.2 2392.37 3684.51 2392.37C3682.01 2392.37 3679.57 2394.15 3679.49 2397.22C3678.61 2430.18 3678.43 2497.77 3687.31 2574.11C3684.95 2574.86 3682.57 2575.62 3680.2 2576.39C3615.72 2597.55 3563.37 2644.87 3536.24 2707.09C3473.19 2851.55 3435.39 3067.13 3412.16 3313.74H1805.93C1799.6 3313.74 1793.6 3316.21 1789.56 3320.45C1785.53 3324.69 1783.89 3330.27 1785.09 3335.69L1796.45 3386.66C1798.69 3396.73 1808.85 3404.01 1820.67 3404.01H3404.4C3399.88 3461.77 3396.04 3520.89 3392.77 3580.9L3619.84 3709.99L3737.72 3404.01H3750.8C3737.25 3492.7 3739.21 3593.42 3784.91 3679.75C3364.91 4108.66 2756.48 4313.78 2218.63 4313.78ZM3149.68 1017.14C3118.53 1017.14 3092.73 1023.01 3075.92 1028.23C3063.31 1032.15 3054.69 1043.78 3054.69 1056.99V1643.67H3199.24C3224.17 1643.67 3244.4 1623.46 3244.4 1598.51V1059.58C3244.4 1045.01 3234.93 1032.02 3221 1027.77C3195.47 1019.97 3171.28 1017.14 3149.68 1017.14ZM2925.99 1043.47C2915.11 1043.47 2904.01 1044.31 2892.96 1046.27C2877 1049.11 2865.03 1062.45 2864.01 1078.62L2828.67 1643.67H3040.45V1094.39C3040.45 1078.59 3030.39 1064.61 3015.43 1059.5C2994.03 1052.18 2961.16 1043.47 2925.99 1043.47ZM2622.2 1641.14L2622.29 1643.13H2822.91L2838.12 1069.54C2838.53 1053.78 2828.47 1039.51 2813.36 1034.98C2782.71 1025.78 2752.13 1020.47 2721.71 1020.47C2696.05 1020.47 2670.49 1024.25 2645.05 1032.62C2618.56 1025.74 2582.97 1019.67 2539.76 1019.67C2503.85 1019.67 2462.69 1023.86 2417.13 1035.23C2404.89 1038.3 2396.23 1049.22 2396.07 1061.83L2388.6 1641.14H2622.2ZM3978.81 3445.43C3966.24 3428.03 3954.03 3412.25 3942.33 3397.7C3946.13 3395.02 3949.27 3391.59 3951.4 3387.58L3974.65 3343.86C3978.15 3337.29 3977.55 3329.62 3973.05 3323.53C3968.57 3317.43 3960.81 3313.74 3952.48 3313.74H3872.91C3843.47 3276.27 3824.23 3243.27 3821.48 3199.41C3821.32 3196.87 3820.13 3195.05 3818.59 3194.11L3907.04 2964.51C4001.99 3042.23 4060.55 3102.29 4058.97 3297.39C4058.92 3304.45 4058.84 3311.65 4058.73 3319.01C4033.68 3362.65 4007.01 3404.74 3978.81 3445.43ZM1709.73 894.339C1758.24 865.245 1809.67 837.179 1863.91 810.966C1839.69 827.179 1812.75 842.819 1782.8 857.352C1760.01 868.419 1735.35 880.699 1709.73 894.339Z" fill="white"/>
</mask>
<g mask="url(#mask0_11_6)">
<path d="M2218.62 4313.78C2161.49 4313.78 2105.21 4311.47 2049.97 4306.86C1841.97 4289.53 1423.45 4254.63 1096.68 3943.3C1047.69 3896.63 1003.1 3845.97 962.833 3791.9C989.595 3776.49 1015.19 3755.07 1037.44 3727.58C1076.96 3678.77 1142.82 3638.69 1209.64 3638.69C1292.3 3638.69 1376.44 3700.05 1413.92 3882.07C1415.05 3887.54 1419.83 3891.5 1425.41 3891.5C1432.67 3891.5 1438.19 3885.02 1436.99 3877.87C1424.97 3806.77 1354.53 3481.62 1070.88 3479.03C1068.62 3479.02 1066.34 3479.01 1064.1 3479.01C963.414 3479.01 878.826 3499.53 810.352 3527.39C670.261 3206.97 637.317 2819.75 697.81 2438.57C727.413 2553.54 794.162 2665.97 928.261 2743.17C1324.97 2971.55 1334.55 2868.25 1384.01 3270.37C1426.58 3616.46 1441.11 3826.93 1444.33 3878.85C1444.77 3885.98 1450.68 3891.5 1457.83 3891.5C1465.47 3891.5 1471.6 3885.21 1471.33 3877.57C1467.6 3768.59 1440.33 3048.5 1362.45 2696.29C1234.46 2117.4 947.8 2328.11 780.205 2089.2C809.887 1995.12 845.336 1902.83 886.295 1813.6C922.46 1868.42 974.559 1918.98 1047.45 1960.73C1395.93 2160.32 1481.61 2265.99 1479.02 2649.3C1476.67 2999.63 1497.76 3747.23 1501.4 3873.28C1501.69 3883.46 1510.03 3891.5 1520.2 3891.5C1530.56 3891.5 1538.97 3883.14 1539 3872.78C1539.46 3708.82 1541.77 2517.03 1511.89 2228.27C1478.2 1902.75 1273.22 1690.18 1125.43 1412.1C1138.85 1394.44 1152.55 1377.05 1166.52 1359.93C1198.17 1321.18 1306.45 1192.08 1480.52 1053.56C1339.2 1189.2 1251.9 1388.42 1395.93 1683.63C1645.53 2195.21 1556.93 2552.57 1574.13 2731.47C1590.06 2897.14 1606.83 3750.79 1609.23 3876.14C1609.39 3884.69 1616.37 3891.5 1624.93 3891.5C1633.76 3891.5 1640.85 3884.23 1640.64 3875.41C1637.16 3737.17 1612.47 2751.53 1612.01 2593.73C1611.53 2423.95 1569.53 1843.02 1721.27 1631.17C1859 1438.87 2062.6 1195.46 2067.93 727.195C2226.77 673.227 2403.91 638.764 2597.28 638.764C2602.81 638.764 2608.32 638.791 2613.88 638.843C3224.84 645.081 3653.68 992.752 3705.82 1036.07C3771.68 1090.8 3916.96 1220.83 4047.91 1427.11C4355.57 1911.81 4382.61 2588.46 4152.44 3130.47C4136.56 3167.85 4119.62 3204.23 4101.56 3239.78C4103.34 3092.13 4092.31 2937.83 4052.06 2802.86C4039.46 2760.58 4024.74 2724.33 4008.54 2692.98C4018.08 2612.05 3970.69 2568.25 3898.19 2553.97C3813.33 2483.14 3725.56 2461.77 3688.91 2395.01C3687.9 2393.19 3686.21 2392.37 3684.49 2392.37C3682.01 2392.37 3679.58 2394.15 3679.5 2397.22C3678.6 2430.18 3678.41 2497.77 3687.29 2574.11C3684.94 2574.86 3682.56 2575.62 3680.21 2576.39C3615.72 2597.55 3563.37 2644.87 3536.23 2707.09C3473.19 2851.55 3435.37 3067.13 3412.17 3313.74H1805.93C1799.6 3313.74 1793.6 3316.21 1789.56 3320.45C1785.53 3324.69 1783.89 3330.27 1785.09 3335.69L1796.45 3386.66C1798.69 3396.73 1808.85 3404.01 1820.66 3404.01H3404.4C3399.88 3461.77 3396.05 3520.89 3392.77 3580.9L3619.85 3709.99L3737.72 3404.01H3750.8C3737.24 3492.7 3739.2 3593.42 3784.89 3679.75C3364.91 4108.66 2756.47 4313.78 2218.62 4313.78ZM3149.68 1017.15C3118.52 1017.15 3092.72 1023.01 3075.92 1028.25C3063.31 1032.16 3054.69 1043.79 3054.69 1057V1643.67H3199.23C3224.18 1643.67 3244.4 1623.45 3244.4 1598.53V1059.59C3244.4 1045 3234.94 1032.02 3221.01 1027.77C3195.45 1019.97 3171.27 1017.15 3149.68 1017.15ZM2925.99 1043.47C2915.1 1043.47 2904.02 1044.31 2892.95 1046.27C2876.99 1049.1 2865.01 1062.44 2864.01 1078.62L2828.67 1643.67H3040.45V1094.4C3040.45 1078.59 3030.38 1064.61 3015.42 1059.51C2994.01 1052.19 2961.16 1043.47 2925.99 1043.47ZM2622.2 1641.13L2622.29 1643.14H2822.91L2838.11 1069.55C2838.53 1053.78 2828.46 1039.5 2813.35 1034.98C2782.71 1025.79 2752.14 1020.48 2721.72 1020.48C2696.05 1020.48 2670.5 1024.25 2645.05 1032.63C2618.56 1025.73 2582.97 1019.68 2539.76 1019.68C2503.85 1019.68 2462.69 1023.86 2417.13 1035.25C2404.89 1038.29 2396.23 1049.23 2396.06 1061.84L2388.6 1641.13H2622.2ZM3978.8 3445.43C3966.25 3428.03 3954.01 3412.25 3942.33 3397.7C3946.14 3395.02 3949.26 3391.59 3951.4 3387.58L3974.65 3343.86C3978.14 3337.29 3977.53 3329.62 3973.04 3323.53C3968.57 3317.43 3960.8 3313.74 3952.48 3313.74H3872.9C3843.46 3276.27 3824.22 3243.27 3821.47 3199.41C3821.31 3196.87 3820.12 3195.05 3818.59 3194.11L3907.05 2964.51C4001.98 3042.23 4060.55 3102.29 4058.96 3297.39C4058.91 3304.45 4058.83 3311.65 4058.72 3319.01C4033.67 3362.65 4007 3404.74 3978.8 3445.43ZM1709.73 894.331C1758.24 865.233 1809.66 837.165 1863.9 810.974C1839.69 827.175 1812.75 842.821 1782.8 857.357C1760.01 868.43 1735.35 880.72 1709.73 894.331Z" fill="url(#paint0_linear_11_6)"/>
</g>
<path d="M1425.41 3891.5C1432.67 3891.5 1438.19 3885.02 1436.99 3877.87C1424.97 3806.77 1354.53 3481.62 1070.88 3479.03C819.576 3476.75 667.081 3602.29 613.927 3655.35C604.431 3664.83 608.645 3681.09 621.584 3684.63C655.9 3694.07 713.012 3717.03 749.66 3770.23C804.924 3850.45 948.18 3837.85 1037.44 3727.58C1125.86 3618.35 1346.13 3552.93 1413.92 3882.07C1415.05 3887.54 1419.83 3891.5 1425.41 3891.5Z" fill="#91B3FA"/>
<path d="M741.416 2020.44C735.11 2006.57 714.778 2008.32 710.821 2023.02C674.941 2156.45 600.876 2554.69 928.259 2743.16C1324.96 2971.55 1334.54 2868.25 1384.01 3270.37C1426.58 3616.46 1441.1 3826.93 1444.33 3878.85C1444.77 3885.98 1450.68 3891.5 1457.82 3891.5C1465.46 3891.5 1471.6 3885.21 1471.33 3877.57C1467.6 3768.6 1440.33 3048.5 1362.45 2696.28C1223.93 2069.81 899.565 2368.11 741.416 2020.44Z" fill="#7D97F4"/>
<path d="M989.035 1029.32C986.541 1015.21 966.16 1015.55 964.059 1029.7C953.517 1100.81 933.409 1191.54 895.761 1250.78C825.892 1360.74 698.971 1761.1 1047.45 1960.73C1395.94 2160.32 1481.61 2265.99 1479.03 2649.3C1476.67 2999.63 1497.76 3747.23 1501.4 3873.28C1501.69 3883.46 1510.03 3891.5 1520.2 3891.5C1530.56 3891.5 1538.97 3883.14 1539 3872.78C1539.47 3708.82 1541.78 2517.02 1511.89 2228.27C1464.54 1770.65 1078.66 1536.23 989.035 1029.32Z" fill="#91B3FA"/>
<path d="M2066.33 631.762C2065.71 617.805 2047.18 613.445 2040.3 625.621C2007.1 684.451 1932.37 784.753 1782.8 857.354C1558.46 966.27 1155.84 1191.52 1395.93 1683.62C1645.53 2195.23 1556.93 2552.57 1574.13 2731.48C1590.06 2897.14 1606.82 3750.8 1609.22 3876.14C1609.38 3884.69 1616.37 3891.5 1624.93 3891.5C1633.76 3891.5 1640.85 3884.23 1640.64 3875.41C1637.16 3737.17 1612.46 2751.53 1612.01 2593.73C1611.53 2423.96 1569.53 1843.01 1721.26 1631.17C1868.06 1426.2 2089.69 1163.23 2066.33 631.762Z" fill="#7D97F4"/>
<path d="M1490.38 2386.43C1486.81 2386.43 1483.84 2383.65 1483.57 2380.09C1476.01 2278.94 1459.57 2177.75 1422.45 2084.09L1415.41 2066.61L1407.62 2049.47C1405.12 2043.71 1402.37 2038.09 1399.45 2032.53L1390.88 2015.81C1378.84 1993.82 1365.58 1972.54 1351.13 1952.1C1336.38 1931.87 1320.67 1912.32 1303.91 1893.67C1287.17 1874.99 1269.17 1857.36 1250.69 1840.19C1213.69 1805.86 1173.86 1774.15 1135.02 1740.46C1115.6 1723.61 1096.45 1706.22 1078.15 1687.76L1064.61 1673.71L1051.89 1658.68L1039.18 1643.61C1035.1 1638.47 1031.56 1632.89 1027.73 1627.53C997.538 1584.55 975.436 1534.87 967.293 1482.62L964.618 1463.01C963.893 1456.45 963.769 1449.84 963.326 1443.26C962.773 1436.7 962.935 1430.1 963.086 1423.52C963.177 1416.94 963.386 1410.35 964.176 1403.82C964.841 1397.26 965.278 1390.72 966.486 1384.25C967.502 1377.76 968.481 1371.26 970.026 1364.86C972.692 1351.9 976.332 1339.53 981.544 1326.77C982.689 1323.95 985.395 1322.26 988.25 1322.26C989.162 1322.26 990.087 1322.43 990.981 1322.79C994.498 1324.24 996.277 1328.1 995.152 1331.66L994.979 1332.22C991.412 1343.4 988.713 1355.88 986.876 1368.02C985.76 1374.11 985.199 1380.31 984.59 1386.47C983.792 1392.61 983.75 1398.84 983.472 1404.99C983.011 1429.72 984.212 1454.51 989.3 1478.68C998.83 1527.09 1020.14 1572.56 1048.69 1612.74C1052.32 1617.75 1055.62 1622.97 1059.5 1627.8L1071.58 1641.91L1083.63 1656.06L1096.58 1669.64C1114.13 1687.54 1132.7 1704.57 1151.74 1721.3C1189.81 1754.72 1229.76 1786.87 1267.42 1822.22C1305.19 1857.33 1340.53 1895.89 1370.26 1938.63C1384.96 1960.11 1398.37 1982.41 1410.5 2005.4L1419.12 2022.88C1422.05 2028.66 1424.78 2034.55 1427.29 2040.53L1435.06 2058.37L1442.05 2076.51C1446.94 2088.54 1450.62 2100.95 1454.85 2113.18C1458.73 2125.52 1462.2 2137.97 1465.7 2150.4C1468.7 2162.96 1472 2175.46 1474.56 2188.09C1476.93 2200.76 1479.92 2213.33 1481.78 2226.07C1490.41 2276.85 1495.25 2328.08 1497.21 2379.34C1497.36 2383.12 1494.42 2386.3 1490.65 2386.43C1490.56 2386.43 1490.48 2386.43 1490.38 2386.43Z" fill="#C5D7FC"/>
<path d="M1378.51 2979.78C1376.23 2979.78 1374.27 2978.12 1373.91 2975.86L1373.86 2975.52C1370.19 2952.2 1367.2 2928.78 1363.04 2905.61L1355.87 2871.04L1352.27 2853.78L1347.55 2836.79L1338.15 2802.86C1334.67 2791.66 1330.4 2780.7 1326.72 2769.59C1319.83 2747.16 1309.51 2726.09 1300.62 2704.48C1295.63 2693.92 1289.99 2683.69 1284.72 2673.26L1276.65 2657.73L1267.49 2642.83L1258.33 2627.93C1255.22 2623.01 1252.42 2617.89 1248.85 2613.26L1228.41 2584.94C1199.87 2548.16 1168.04 2514.02 1132.9 2483.4C1097.34 2453.27 1059.23 2426.15 1019.16 2402.03C1009.03 2396.2 999.035 2390.12 988.799 2384.44L957.743 2368C936.813 2356.39 915.135 2344.98 895.322 2330.91C855.304 2303.44 818.995 2269.6 791.221 2229.39C777.639 2209.11 765.815 2187.62 757.184 2164.83C752.911 2153.44 749.205 2141.85 746.441 2130.02C743.456 2118.19 741.8 2106.27 741.349 2093.76C741.271 2091.57 742.985 2089.73 745.177 2089.66C745.227 2089.64 745.272 2089.64 745.321 2089.64C747.27 2089.64 748.914 2091.06 749.237 2092.95L749.309 2093.37C753.168 2115.79 761.023 2138.17 771.099 2158.87C781.469 2179.54 793.503 2199.26 807.618 2217.47C835.785 2253.96 871.011 2284.51 909.453 2309.98C928.479 2323.23 949.009 2333.61 969.578 2344.91L1001.32 2361.84C1011.8 2367.68 1022.05 2373.96 1032.43 2379.98C1073.45 2404.98 1112.98 2432.78 1149.32 2464.54C1185.28 2496.74 1218.23 2532.32 1246.95 2571.12L1267.44 2600.94C1271.01 2605.81 1273.8 2611.19 1276.9 2616.36L1286.01 2631.96L1295.1 2647.58L1303.06 2663.79C1308.25 2674.64 1313.8 2685.34 1318.68 2696.33C1327.34 2718.73 1337.38 2740.64 1343.92 2763.75C1347.51 2775.2 1351.32 2786.59 1354.44 2798.13L1362.68 2833.09L1366.8 2850.55L1369.79 2868.22L1375.7 2903.56C1377.84 2915.3 1378.42 2927.25 1379.74 2939.1L1383.18 2974.67C1383.42 2977.22 1381.54 2979.52 1378.96 2979.77C1378.82 2979.77 1378.67 2979.78 1378.51 2979.78Z" fill="#BAC8F9"/>
<path d="M733.283 3624.78C732.076 3624.78 730.9 3624.17 730.239 3623.06C729.348 3621.55 729.696 3619.66 730.977 3618.57C750.297 3601.99 771.269 3587.97 793.063 3575.1C803.98 3568.73 815.104 3562.69 826.48 3557.11C837.796 3551.43 849.351 3546.19 861.12 3541.45C884.553 3531.69 908.827 3523.9 933.511 3517.61C958.265 3511.57 983.553 3507.55 1009.01 3505.43C1020.16 3504.47 1031.36 3503.99 1042.57 3503.99C1056.95 3503.99 1071.34 3504.78 1085.63 3506.39C1111.05 3509.18 1136.3 3514.25 1160.54 3522.34L1169.67 3525.25L1178.57 3528.77C1184.48 3531.18 1190.47 3533.37 1196.28 3535.95C1207.73 3541.54 1219.39 3546.69 1230.15 3553.5C1252.33 3565.89 1272.56 3581.29 1291.8 3597.47C1293.29 3598.73 1293.48 3600.95 1292.22 3602.45C1291.53 3603.29 1290.53 3603.71 1289.52 3603.71C1288.85 3603.71 1288.17 3603.51 1287.57 3603.13L1287.4 3603.01C1266.79 3589.25 1246.3 3575.43 1223.94 3565.13C1213.09 3559.38 1201.52 3555.23 1190.32 3550.37C1184.62 3548.18 1178.76 3546.39 1173 3544.39L1164.34 3541.47L1155.49 3539.15C1132.11 3532.22 1107.91 3528.63 1083.73 3526.51C1077.66 3526.17 1071.63 3525.37 1065.54 3525.37L1047.3 3525.07C1035.14 3525.51 1022.98 3525.82 1010.86 3527.07C962.307 3531.34 914.667 3543.94 868.605 3560.7C822.585 3577.62 777.744 3598.95 735.237 3624.19L735.087 3624.29C734.52 3624.62 733.897 3624.78 733.283 3624.78Z" fill="#C5D7FC"/>
<path d="M1533.28 1843.79C1532.13 1843.79 1531.08 1843.08 1530.67 1841.98C1511.97 1791.91 1495.68 1740.89 1482.01 1689.03C1468.36 1637.21 1457.63 1584.4 1452.09 1530.73C1446.57 1477.1 1445.96 1422.53 1453.81 1368.49C1457.78 1341.53 1464 1314.79 1472.57 1288.75C1481.15 1262.69 1492.52 1237.5 1506.11 1213.59C1533.26 1165.64 1570.6 1124.19 1611.99 1088.92C1632.62 1071.22 1654.68 1054.99 1676.6 1039.69C1687.36 1032.02 1698.28 1024.58 1708.9 1016.7C1719.45 1008.72 1730.15 1000.95 1740.57 992.817C1750.89 984.531 1761.54 976.68 1771.8 968.292C1781.99 959.853 1792.44 951.72 1802.44 943.025C1822.69 925.968 1842.84 908.732 1862.32 890.728C1882.11 873.031 1901.29 854.695 1920.33 836.154C1939.21 817.486 1958.12 798.664 1976.13 779.152L1976.17 779.1C1976.72 778.512 1977.48 778.205 1978.23 778.205C1978.91 778.205 1979.59 778.461 1980.12 778.947C1981.16 779.919 1981.3 781.479 1980.49 782.604C1964.88 804.546 1948.01 825.363 1930.45 845.642C1913.03 866.05 1894.63 885.588 1875.89 904.844L1861.68 919.114L1847.17 933.077C1837.56 942.463 1827.68 951.567 1817.71 960.569C1797.69 978.521 1777.21 995.937 1756.25 1012.82C1745.73 1021.2 1734.92 1029.21 1724.27 1037.44C1713.53 1045.55 1702.48 1053.25 1691.6 1061.17C1669.83 1076.47 1648.72 1091.71 1628.77 1108.69C1588.81 1142.27 1553.88 1181.45 1527.68 1226.07C1514.61 1248.37 1503.59 1271.9 1495.14 1296.45C1486.65 1320.95 1480.62 1346.32 1476.17 1372.02C1471.56 1397.69 1469.79 1423.91 1468.79 1450.12L1468.49 1469.81C1468.41 1476.38 1468.79 1482.96 1468.89 1489.55C1469.04 1502.72 1470.11 1515.87 1470.87 1529.01C1479.15 1634.43 1504.89 1738.33 1535.93 1840.19C1536.39 1841.67 1535.56 1843.23 1534.09 1843.67C1533.81 1843.74 1533.55 1843.79 1533.28 1843.79Z" fill="#A8B9F8"/>
<mask id="mask1_11_6" style="mask-type:luminance" maskUnits="userSpaceOnUse" x="1268" y="3860" width="543" height="471">
<path d="M1313.61 3860.35H1757.64C1790.88 3860.35 1815.75 3891.63 1809.57 3924.29C1783.07 4064.61 1729.36 4188.58 1673.55 4292.3C1661.08 4315.47 1636.93 4330.26 1610.63 4330.26H1465.73C1439.01 4330.26 1414.52 4315.74 1401.64 4292.33C1331.98 4165.57 1297.93 4039.77 1269.52 3916.69C1262.98 3888.33 1284.51 3860.35 1313.61 3860.35Z" fill="white"/>
</mask>
<g mask="url(#mask1_11_6)">
<path d="M1313.61 3860.35H1757.64C1790.88 3860.35 1815.75 3891.63 1809.57 3924.29C1783.07 4064.61 1729.36 4188.58 1673.55 4292.3C1661.08 4315.47 1636.93 4330.26 1610.63 4330.26H1465.73C1439.01 4330.26 1414.52 4315.74 1401.64 4292.33C1331.98 4165.57 1297.93 4039.77 1269.52 3916.69C1262.98 3888.33 1284.51 3860.35 1313.61 3860.35Z" fill="url(#paint1_linear_11_6)"/>
</g>
<mask id="mask2_11_6" style="mask-type:luminance" maskUnits="userSpaceOnUse" x="3392" y="2553" width="618" height="1157">
<path d="M3619.84 3709.99L3392.77 3580.9C3396.04 3520.89 3399.88 3461.77 3404.4 3404.01H3737.72L3619.84 3709.99ZM3770.27 3313.74H3412.16C3435.39 3067.13 3473.19 2851.55 3536.24 2707.09C3563.37 2644.87 3615.72 2597.55 3680.2 2576.39C3682.57 2575.62 3684.95 2574.86 3687.31 2574.11C3700.19 2684.69 3732.11 2813.62 3808.63 2882.3C3844.47 2914.47 3877.52 2940.34 3907.04 2964.51L3818.59 3194.11C3817.8 3193.63 3816.92 3193.39 3816.04 3193.39C3814.17 3193.39 3812.29 3194.51 3811.23 3196.97C3800.8 3221.06 3784.35 3262.59 3770.27 3313.74ZM4008.53 2692.98C3975.93 2629.89 3937.37 2586.66 3898.2 2553.97C3970.68 2568.25 4018.08 2612.05 4008.53 2692.98Z" fill="white"/>
</mask>
<g mask="url(#mask2_11_6)">
<path d="M3619.85 3709.99L3392.76 3580.9C3396.04 3520.89 3399.87 3461.77 3404.4 3404H3737.71L3619.85 3709.99ZM3770.26 3313.74H3412.15C3435.4 3067.13 3473.18 2851.55 3536.23 2707.09C3563.37 2644.87 3615.72 2597.55 3680.2 2576.39C3682.58 2575.62 3684.94 2574.86 3687.3 2574.11C3700.2 2684.69 3732.1 2813.62 3808.63 2882.3C3844.48 2914.47 3877.51 2940.34 3907.04 2964.51L3818.6 3194.11C3817.81 3193.63 3816.92 3193.39 3816.04 3193.39C3814.17 3193.39 3812.3 3194.51 3811.22 3196.97C3800.79 3221.06 3784.35 3262.59 3770.26 3313.74ZM4008.54 2692.98C3975.94 2629.89 3937.37 2586.66 3898.2 2553.97C3970.68 2568.25 4018.08 2612.05 4008.54 2692.98Z" fill="url(#paint2_linear_11_6)"/>
</g>
<mask id="mask3_11_6" style="mask-type:luminance" maskUnits="userSpaceOnUse" x="2581" y="3335" width="365" height="912">
<path d="M2762.25 3335.95C2762.25 3335.95 2686.03 3347.77 2600.33 3405.06C2586.85 3414.07 2579.45 3429.79 2581.48 3445.89C2591.75 3527.17 2633.93 3790.25 2773.07 4047.21C2780.4 4060.75 2782.51 4076.53 2779.27 4091.59L2755.11 4204.09L2710.28 4246.11H2825.73L2902.61 4038.07L2869.73 4027.69C2844.25 4019.62 2826.76 3996.18 2826.31 3969.45L2822.44 3746.29C2825.73 3646.86 2761.48 3578.26 2761.48 3578.26L2945.87 3569.29L2762.25 3335.95Z" fill="white"/>
</mask>
<g mask="url(#mask3_11_6)">
<path d="M2762.25 3335.95C2762.25 3335.95 2686.03 3347.77 2600.33 3405.06C2586.85 3414.07 2579.46 3429.79 2581.48 3445.89C2591.75 3527.16 2633.93 3790.25 2773.07 4047.2C2780.39 4060.75 2782.51 4076.53 2779.27 4091.59L2755.11 4204.09L2710.29 4246.11H2825.74L2902.62 4038.07L2869.73 4027.69C2844.26 4019.62 2826.77 3996.18 2826.31 3969.45L2822.45 3746.29C2825.74 3646.86 2761.49 3578.26 2761.49 3578.26L2945.87 3569.29L2762.25 3335.95Z" fill="url(#paint3_linear_11_6)"/>
</g>
<mask id="mask4_11_6" style="mask-type:luminance" maskUnits="userSpaceOnUse" x="2664" y="4027" width="264" height="258">
<path d="M2665.19 4266.41C2654.68 4280.17 2778.36 4298.33 2840.85 4268.22C2840.85 4268.22 2927.48 4117.51 2927.48 4039.91C2927.48 4039.91 2920.6 4024.1 2869.73 4027.69C2869.73 4027.69 2840.65 4206.13 2809.95 4226.13C2779.23 4246.11 2724.01 4228.14 2724.01 4228.14C2724.01 4228.14 2680.71 4246.1 2665.19 4266.41Z" fill="white"/>
</mask>
<g mask="url(#mask4_11_6)">
<path d="M2665.19 4266.41C2654.69 4280.17 2778.36 4298.33 2840.86 4268.22C2840.86 4268.22 2927.48 4117.51 2927.48 4039.91C2927.48 4039.91 2920.6 4024.1 2869.74 4027.69C2869.74 4027.69 2840.66 4206.13 2809.95 4226.13C2779.22 4246.11 2724.01 4228.14 2724.01 4228.14C2724.01 4228.14 2680.71 4246.1 2665.19 4266.41Z" fill="url(#paint4_linear_11_6)"/>
</g>
<mask id="mask5_11_6" style="mask-type:luminance" maskUnits="userSpaceOnUse" x="2207" y="3372" width="770" height="904">
<path d="M2976.63 3589.69C2975.64 3587.99 2778.11 3565.94 2778.11 3565.94C2778.11 3565.94 2784.56 3626.01 2764.36 3708.69C2744.16 3791.37 2454.12 4149.59 2454.12 4149.59L2484.53 4246.01C2390.51 4278.75 2298.01 4283.99 2207 4262.7L2395.47 4149.59C2395.47 4149.59 2571.85 3548.5 2679.89 3441.27L2877.91 3372.77L2976.63 3589.69Z" fill="white"/>
</mask>
<g mask="url(#mask5_11_6)">
<path d="M2976.62 3589.69C2975.63 3587.99 2778.1 3565.94 2778.1 3565.94C2778.1 3565.94 2784.54 3626.01 2764.35 3708.69C2744.15 3791.37 2454.12 4149.59 2454.12 4149.59L2484.53 4246.01C2390.5 4278.75 2298 4283.99 2206.99 4262.7L2395.47 4149.59C2395.47 4149.59 2571.85 3548.5 2679.89 3441.27L2877.9 3372.77L2976.62 3589.69Z" fill="url(#paint5_linear_11_6)"/>
</g>
<mask id="mask6_11_6" style="mask-type:luminance" maskUnits="userSpaceOnUse" x="2664" y="3273" width="916" height="366">
<path d="M3454.56 3273.35C3454.56 3273.35 3568.37 3442.65 3577.72 3519.86C3587.05 3597.09 3546.53 3628.46 3427.12 3633.63C3307.69 3638.81 2857.41 3638.73 2857.41 3638.73C2701.84 3523.33 2694.57 3455.78 2664.56 3368.79C2664.56 3368.79 2687.39 3329.91 2966.64 3315.42C3021.87 3312.55 3454.56 3273.35 3454.56 3273.35Z" fill="white"/>
</mask>
<g mask="url(#mask6_11_6)">
<path d="M3454.57 3273.35C3454.57 3273.35 3568.37 3442.64 3577.73 3519.86C3587.06 3597.08 3546.53 3628.46 3427.12 3633.63C3307.69 3638.81 2857.41 3638.72 2857.41 3638.72C2701.84 3523.33 2694.58 3455.78 2664.56 3368.79C2664.56 3368.79 2687.4 3329.91 2966.65 3315.42C3021.87 3312.55 3454.57 3273.35 3454.57 3273.35Z" fill="url(#paint6_linear_11_6)"/>
</g>
<mask id="mask7_11_6" style="mask-type:luminance" maskUnits="userSpaceOnUse" x="2139" y="4222" width="354" height="103">
<path d="M2473.21 4222.31C2473.21 4222.31 2507.43 4255.45 2484.31 4292.31C2484.31 4292.31 2213.32 4340.35 2139.73 4318.55C2139.73 4318.55 2155.01 4283.69 2237.87 4243.99L2231.75 4248.69C2224.01 4254.62 2228.56 4266.99 2238.29 4266.45C2292.88 4263.33 2405.87 4253.33 2473.21 4222.31Z" fill="white"/>
</mask>
<g mask="url(#mask7_11_6)">
<path d="M2473.21 4222.31C2473.21 4222.31 2507.43 4255.45 2484.31 4292.31C2484.31 4292.31 2213.33 4340.35 2139.73 4318.55C2139.73 4318.55 2155.01 4283.68 2237.87 4243.99L2231.75 4248.69C2224.02 4254.62 2228.56 4266.99 2238.3 4266.44C2292.89 4263.32 2405.87 4253.32 2473.21 4222.31Z" fill="url(#paint7_linear_11_6)"/>
</g>
<mask id="mask8_11_6" style="mask-type:luminance" maskUnits="userSpaceOnUse" x="3033" y="2140" width="641" height="799">
<path d="M3124.67 2140.5C3360.67 2141.86 3435.67 2347.71 3420.88 2385.59C3418.91 2390.62 3423.05 2395.89 3428.43 2395.41C3455.97 2392.95 3515.65 2394.25 3543.75 2445.73C3568.53 2491.18 3538.15 2524.61 3515.15 2541.85C3509.59 2546.01 3512.09 2554.79 3519.03 2555.13C3568.47 2557.54 3673.81 2574.55 3673.69 2676.03C3673.57 2770.66 3605.12 2785.3 3565.95 2785.94C3559.32 2786.05 3556.33 2794.21 3561.23 2798.67C3578.03 2813.99 3595.57 2842.63 3578.12 2889.99C3550.76 2964.22 3401.56 2931.5 3384.17 2927.41C3383.07 2927.15 3382.07 2926.65 3381.2 2925.93L3164.6 2746.27C3162.92 2744.86 3161.95 2742.78 3161.95 2740.59L3162.72 2451.34C3162.72 2449.01 3163.84 2446.81 3165.73 2445.43L3047.75 2196.33C2992.25 2177.93 3121.89 2140.49 3124.67 2140.5Z" fill="white"/>
</mask>
<g mask="url(#mask8_11_6)">
<path d="M3124.66 2140.49C3360.68 2141.86 3435.67 2347.7 3420.88 2385.59C3418.92 2390.62 3423.07 2395.89 3428.43 2395.39C3455.97 2392.94 3515.65 2394.24 3543.76 2445.72C3568.53 2491.18 3538.15 2524.61 3515.16 2541.85C3509.59 2546 3512.09 2554.79 3519.03 2555.12C3568.46 2557.53 3673.83 2574.55 3673.69 2676.02C3673.58 2770.66 3605.13 2785.3 3565.96 2785.94C3559.33 2786.04 3556.34 2794.2 3561.23 2798.67C3578.04 2813.99 3595.57 2842.63 3578.13 2889.99C3550.77 2964.22 3401.56 2931.5 3384.19 2927.4C3383.06 2927.15 3382.07 2926.64 3381.21 2925.92L3164.6 2746.27C3162.93 2744.86 3161.96 2742.78 3161.96 2740.59L3162.73 2451.33C3162.73 2449.01 3163.85 2446.8 3165.75 2445.43L3047.76 2196.31C2992.25 2177.92 3121.89 2140.49 3124.66 2140.49Z" fill="url(#paint8_linear_11_6)"/>
</g>
<mask id="mask9_11_6" style="mask-type:luminance" maskUnits="userSpaceOnUse" x="2945" y="2593" width="615" height="635">
<path d="M3124.97 3207.86C3124.97 3207.86 3016.29 3060.61 2966.52 2966.98C2939.63 2916.37 2939.01 2855.87 2964.6 2804.58C3011.32 2710.9 3081.47 2617.71 3089.03 2602.62C3100.6 2579.47 3246.79 2606.23 3246.79 2606.23C3246.79 2606.23 3501.92 2843.82 3559.37 3180.37L3425.33 3197.57C3425.33 3197.57 3372.32 3058.18 3312.13 2964.9C3312.13 2964.9 3410.83 3157.37 3403.12 3227.69L3124.97 3207.86Z" fill="white"/>
</mask>
<g mask="url(#mask9_11_6)">
<path d="M3124.98 3207.86C3124.98 3207.86 3016.3 3060.6 2966.53 2966.98C2939.63 2916.36 2939.02 2855.87 2964.61 2804.58C3011.32 2710.89 3081.46 2617.71 3089.04 2602.62C3100.61 2579.48 3246.78 2606.23 3246.78 2606.23C3246.78 2606.23 3501.92 2843.82 3559.38 3180.36L3425.34 3197.56C3425.34 3197.56 3372.32 3058.18 3312.14 2964.9C3312.14 2964.9 3410.82 3157.36 3403.11 3227.68L3124.98 3207.86Z" fill="url(#paint9_linear_11_6)"/>
</g>
<mask id="mask10_11_6" style="mask-type:luminance" maskUnits="userSpaceOnUse" x="3095" y="2406" width="145" height="210">
<path d="M3095.33 2463.02C3095.96 2468.37 3111.89 2601.73 3114.41 2604.89C3116.93 2608.03 3196.96 2626.59 3239.56 2607.3L3177.69 2406.19L3095.33 2463.02Z" fill="white"/>
</mask>
<g mask="url(#mask10_11_6)">
<path d="M3095.34 2463C3095.98 2468.35 3111.9 2601.73 3114.42 2604.89C3116.94 2608.03 3196.98 2626.59 3239.57 2607.29L3177.7 2406.18L3095.34 2463Z" fill="url(#paint10_linear_11_6)"/>
</g>
<mask id="mask11_11_6" style="mask-type:luminance" maskUnits="userSpaceOnUse" x="2957" y="2237" width="239" height="316">
<path d="M2970.81 2273.35C2970.81 2273.35 2939.59 2342.66 2973.49 2449.22C3007.41 2555.78 3065.25 2565.85 3102.36 2540.18C3139.45 2514.5 3187.76 2468.37 3195.09 2372.39C3202.43 2276.43 3013.71 2185.75 2970.81 2273.35Z" fill="white"/>
</mask>
<g mask="url(#mask11_11_6)">
<path d="M2970.83 2273.35C2970.83 2273.35 2939.6 2342.65 2973.51 2449.21C3007.43 2555.78 3065.26 2565.83 3102.36 2540.17C3139.45 2514.49 3187.78 2468.37 3195.11 2372.39C3202.44 2276.43 3013.72 2185.74 2970.83 2273.35Z" fill="url(#paint11_linear_11_6)"/>
</g>
<mask id="mask12_11_6" style="mask-type:luminance" maskUnits="userSpaceOnUse" x="2889" y="2143" width="370" height="259">
<path d="M3123.53 2365.09C3123.53 2365.09 3061.59 2220.63 2964.17 2308.62L2956.21 2345.45C2956.21 2345.45 2865.09 2318.02 2896.39 2235.54C2927.68 2153.06 3017.52 2113.87 3114.6 2169.06C3211.68 2224.26 3264.37 2272.61 3258 2348.02C3251.63 2423.43 3195.43 2396.77 3195.43 2396.77C3195.43 2396.77 3185.36 2341.1 3158.92 2330.85C3132.49 2320.59 3132.44 2362.62 3132.44 2362.62L3123.53 2365.09Z" fill="white"/>
</mask>
<g mask="url(#mask12_11_6)">
<path d="M3123.54 2365.07C3123.54 2365.07 3061.59 2220.62 2964.18 2308.62L2956.22 2345.44C2956.22 2345.44 2865.1 2318.01 2896.41 2235.53C2927.69 2153.05 3017.53 2113.86 3114.61 2169.04C3211.68 2224.26 3264.38 2272.59 3258 2348.02C3251.65 2423.43 3195.43 2396.76 3195.43 2396.76C3195.43 2396.76 3185.38 2341.08 3158.93 2330.83C3132.5 2320.59 3132.46 2362.61 3132.46 2362.61L3123.54 2365.07Z" fill="url(#paint12_linear_11_6)"/>
</g>
<mask id="mask13_11_6" style="mask-type:luminance" maskUnits="userSpaceOnUse" x="3134" y="2291" width="56" height="99">
<path d="M3145.55 2367.17C3145.55 2367.17 3113.27 2293.1 3160.04 2291.13C3206.81 2289.15 3186.72 2362.46 3177 2389.18L3145.55 2367.17Z" fill="white"/>
</mask>
<g mask="url(#mask13_11_6)">
<path d="M3145.55 2367.16C3145.55 2367.16 3113.26 2293.09 3160.05 2291.12C3206.82 2289.16 3186.72 2362.46 3177 2389.18L3145.55 2367.16Z" fill="url(#paint13_linear_11_6)"/>
</g>
<mask id="mask14_11_6" style="mask-type:luminance" maskUnits="userSpaceOnUse" x="2857" y="3094" width="717" height="236">
<path d="M2857.41 3170.31L2969.59 3094.74L3092.4 3174.13C3092.4 3174.13 3220.85 3217.82 3300.04 3210.66C3379.23 3203.49 3379.23 3203.49 3379.23 3203.49L3559.37 3180.37L3572.87 3260.9C3576.29 3281.34 3565.69 3301.5 3546.96 3310.41C3530.35 3318.3 3510.99 3326.79 3499.11 3329.69C3474.88 3335.57 2945.81 3225.34 2945.81 3225.34L2857.41 3170.31Z" fill="white"/>
</mask>
<g mask="url(#mask14_11_6)">
<path d="M2857.4 3170.32L2969.59 3094.74L3092.38 3174.13C3092.38 3174.13 3220.84 3217.82 3300.02 3210.66C3379.21 3203.49 3379.21 3203.49 3379.21 3203.49L3559.36 3180.37L3572.87 3260.9C3576.29 3281.34 3565.68 3301.5 3546.95 3310.41C3530.33 3318.3 3510.98 3326.8 3499.09 3329.69C3474.87 3335.57 2945.8 3225.34 2945.8 3225.34L2857.4 3170.32Z" fill="url(#paint14_linear_11_6)"/>
</g>
<mask id="mask15_11_6" style="mask-type:luminance" maskUnits="userSpaceOnUse" x="2738" y="3285" width="616" height="53">
<path d="M3329.81 3336.99C3329.37 3337.01 3328.95 3337.02 3328.51 3337.02L2763.64 3336.41C2749.67 3336.39 2738.36 3325.06 2738.39 3311.1C2738.39 3297.13 2749.77 3285.58 2763.69 3285.83L3328.56 3286.45C3342.53 3286.46 3353.84 3297.79 3353.83 3311.77C3353.8 3325.29 3343.17 3336.33 3329.81 3336.99Z" fill="white"/>
</mask>
<g mask="url(#mask15_11_6)">
<path d="M3329.81 3336.99C3329.38 3337 3328.95 3337.02 3328.52 3337.02L2763.65 3336.4C2749.68 3336.39 2738.36 3325.06 2738.38 3311.1C2738.38 3297.12 2749.78 3285.58 2763.69 3285.83L3328.56 3286.44C3342.53 3286.46 3353.84 3297.79 3353.82 3311.76C3353.8 3325.28 3343.19 3336.32 3329.81 3336.99Z" fill="url(#paint15_linear_11_6)"/>
</g>
<mask id="mask16_11_6" style="mask-type:luminance" maskUnits="userSpaceOnUse" x="2218" y="2824" width="807" height="513">
<path d="M2255.84 2824.11H2726.27C2760.97 2824.11 2792.56 2844.15 2807.36 2875.54L3024.84 3336.69H2440.23C2417.87 3336.69 2397.77 3323.02 2389.55 3302.22L2220.91 2875.5C2211.16 2850.85 2229.33 2824.11 2255.84 2824.11Z" fill="white"/>
</mask>
<g mask="url(#mask16_11_6)">
<path d="M2255.85 2824.11H2726.28C2760.98 2824.11 2792.56 2844.15 2807.37 2875.53L3024.85 3336.68H2440.23C2417.87 3336.68 2397.77 3323.02 2389.55 3302.22L2220.9 2875.49C2211.16 2850.85 2229.33 2824.11 2255.85 2824.11Z" fill="url(#paint16_linear_11_6)"/>
</g>
<path d="M2587.28 3060.57C2597.46 3092.23 2589.94 3122.99 2570.45 3129.27C2550.96 3135.53 2526.91 3114.96 2516.71 3083.26C2506.52 3051.6 2514.04 3020.84 2533.54 3014.58C2553.02 3008.3 2577.08 3028.89 2587.28 3060.57Z" fill="#91B3FA"/>
<mask id="mask17_11_6" style="mask-type:luminance" maskUnits="userSpaceOnUse" x="3323" y="3757" width="53" height="564">
<path d="M3323.85 4320.75H3375.96V3757.26H3323.85V4320.75Z" fill="white"/>
</mask>
<g mask="url(#mask17_11_6)">
<path d="M3323.86 4320.75H3375.97V3757.26H3323.86V4320.75Z" fill="url(#paint17_linear_11_6)"/>
</g>
<mask id="mask18_11_6" style="mask-type:luminance" maskUnits="userSpaceOnUse" x="3121" y="4297" width="458" height="35">
<path d="M3121.72 4331.62H3578.08V4300.23C3578.08 4298.83 3576.95 4297.7 3575.56 4297.7H3124.44C3122.93 4297.7 3121.72 4298.93 3121.72 4300.43V4331.62Z" fill="white"/>
</mask>
<g mask="url(#mask18_11_6)">
<path d="M3121.72 4331.62H3578.09V4300.23C3578.09 4298.83 3576.95 4297.7 3575.56 4297.7H3124.44C3122.95 4297.7 3121.72 4298.92 3121.72 4300.43V4331.62Z" fill="url(#paint18_linear_11_6)"/>
</g>
<mask id="mask19_11_6" style="mask-type:luminance" maskUnits="userSpaceOnUse" x="3035" y="3623" width="611" height="174">
<path d="M3035.41 3736.49C3035.41 3769.23 3062.21 3796.03 3094.96 3796.03H3585.67C3618.43 3796.03 3645.23 3769.23 3645.23 3736.49V3682.63C3645.23 3649.89 3618.43 3623.09 3585.67 3623.09H3094.96C3062.21 3623.09 3035.41 3649.89 3035.41 3682.63V3736.49Z" fill="white"/>
</mask>
<g mask="url(#mask19_11_6)">
<path d="M3035.42 3736.49C3035.42 3769.23 3062.21 3796.03 3094.95 3796.03H3585.67C3618.43 3796.03 3645.22 3769.23 3645.22 3736.49V3682.63C3645.22 3649.89 3618.43 3623.09 3585.67 3623.09H3094.95C3062.21 3623.09 3035.42 3649.89 3035.42 3682.63V3736.49Z" fill="url(#paint19_linear_11_6)"/>
</g>
<path d="M3798.34 4317.74C3800.61 4317.74 3802.98 4317.23 3805.2 4316.18C3814.06 4312.02 3818.16 4300.82 3814.34 4291.15L3448.31 3362.42C3444.51 3352.75 3434.25 3348.3 3425.38 3352.45C3416.52 3356.61 3412.45 3367.81 3416.24 3377.47L3782.29 4306.21C3785.13 4313.42 3791.55 4317.74 3798.34 4317.74Z" fill="#7D97F4"/>
<path d="M3385.98 4317.74C3392.73 4317.74 3399.17 4313.42 3402.01 4306.21L3768.05 3377.47C3771.86 3367.81 3767.77 3356.61 3758.93 3352.45C3750.06 3348.29 3739.79 3352.75 3735.97 3362.42L3369.96 4291.15C3366.14 4300.82 3370.24 4312.02 3379.08 4316.18C3381.32 4317.23 3383.69 4317.74 3385.98 4317.74Z" fill="#7D97F4"/>
<path d="M2240.29 4317.74C2242.57 4317.74 2244.93 4317.23 2247.16 4316.18C2256.02 4312.02 2260.11 4300.82 2256.3 4291.15L1890.27 3362.43C1886.46 3352.75 1876.21 3348.3 1867.34 3352.45C1858.49 3356.61 1854.4 3367.81 1858.2 3377.47L2224.24 4306.21C2227.09 4313.42 2233.52 4317.74 2240.29 4317.74Z" fill="#7D97F4"/>
<path d="M1827.94 4317.74C1834.7 4317.74 1841.14 4313.42 1843.98 4306.21L2210.01 3377.48C2213.82 3367.81 2209.73 3356.6 2200.88 3352.45C2192.02 3348.29 2181.76 3352.76 2177.94 3362.42L1811.91 4291.15C1808.11 4300.82 1812.2 4312.02 1821.05 4316.18C1823.31 4317.23 1825.64 4317.74 1827.94 4317.74Z" fill="#7D97F4"/>
<path d="M1785.1 3335.68C1783.9 3330.27 1785.54 3324.68 1789.57 3320.44C1793.6 3316.2 1799.6 3313.74 1805.94 3313.74H3952.48C3960.83 3313.74 3968.59 3317.43 3973.06 3323.52C3977.55 3329.61 3978.16 3337.28 3974.67 3343.85L3951.41 3387.58C3946.09 3397.59 3934.52 3404 3921.83 3404H1820.67C1808.86 3404 1798.7 3396.72 1796.46 3386.66L1785.1 3335.68Z" fill="#7D97F4"/>
<path d="M3458.37 1591.48C3458.37 1591.48 3296.67 1217.95 3419.1 824.449C3419.88 821.868 3424.44 822.348 3424.77 825.056C3454.3 1063.05 3463.08 1320.82 3458.37 1591.48Z" fill="#91B3FA"/>
<mask id="mask20_11_6" style="mask-type:luminance" maskUnits="userSpaceOnUse" x="3409" y="923" width="51" height="661">
<path d="M3457.72 1583.61C3456.83 1583.61 3455.99 1583.02 3455.73 1582.1C3427.04 1480.19 3416.13 1307.02 3412.04 1179.7C3407.6 1041.82 3409.96 926.499 3409.99 925.352C3410 924.219 3410.77 923.312 3412.11 923.326C3413.25 923.352 3414.16 924.299 3414.13 925.446C3414.11 926.592 3411.75 1041.81 3416.19 1179.58C3420.28 1306.67 3431.16 1479.46 3459.73 1580.97C3460.04 1582.07 3459.4 1583.22 3458.29 1583.53C3458.11 1583.58 3457.91 1583.61 3457.72 1583.61Z" fill="white"/>
</mask>
<g mask="url(#mask20_11_6)">
<path d="M3457.7 1583.62C3456.81 1583.62 3455.97 1583.02 3455.73 1582.11C3427.05 1480.19 3416.14 1307.02 3412.04 1179.7C3407.6 1041.82 3409.97 926.503 3409.99 925.367C3409.99 924.232 3410.76 923.319 3412.11 923.343C3413.25 923.368 3414.16 924.306 3414.14 925.441C3414.11 926.602 3411.74 1041.82 3416.19 1179.6C3420.28 1306.67 3431.14 1479.45 3459.73 1580.97C3460.02 1582.09 3459.41 1583.22 3458.29 1583.54C3458.1 1583.59 3457.9 1583.62 3457.7 1583.62Z" fill="url(#paint20_linear_11_6)"/>
</g>
<path d="M3495.39 1530.61C3495.39 1530.61 3395.51 1072.29 3584.29 608.527C3585.51 605.491 3589.99 606.37 3589.88 609.645C3579.71 896.882 3545.4 1206.44 3495.39 1530.61Z" fill="#91B3FA"/>
<mask id="mask21_11_6" style="mask-type:luminance" maskUnits="userSpaceOnUse" x="3490" y="727" width="73" height="794">
<path d="M3496.41 1520.71C3495.36 1520.71 3494.45 1519.91 3494.35 1518.83C3471.87 1281.69 3557.4 734.272 3558.27 728.779C3558.44 727.645 3559.49 726.859 3560.64 727.045C3561.77 727.232 3562.55 728.285 3562.37 729.419C3561.51 734.925 3476.05 1281.81 3498.48 1518.45C3498.59 1519.58 3497.75 1520.61 3496.61 1520.71H3496.41Z" fill="white"/>
</mask>
<g mask="url(#mask21_11_6)">
<path d="M3496.43 1520.69C3495.37 1520.69 3494.47 1519.92 3494.36 1518.83C3471.87 1281.67 3557.4 734.267 3558.28 728.753C3558.46 727.64 3559.5 726.863 3560.66 727.044C3561.77 727.225 3562.55 728.287 3562.37 729.426C3561.52 734.914 3476.06 1281.8 3498.48 1518.44C3498.61 1519.58 3497.75 1520.59 3496.61 1520.69H3496.43Z" fill="url(#paint21_linear_11_6)"/>
</g>
<path d="M3511.24 1654.87C3511.24 1654.87 3463.39 1255.07 3701.12 895.252C3702.66 892.914 3707.01 894.356 3706.52 897.067C3664.66 1136.39 3596.54 1390.73 3511.24 1654.87Z" fill="#91B3FA"/>
<mask id="mask22_11_6" style="mask-type:luminance" maskUnits="userSpaceOnUse" x="3511" y="990" width="156" height="658">
<path d="M3513.57 1647.07H3513.55C3512.39 1647.05 3511.48 1646.1 3511.51 1644.95C3513.63 1539.11 3554.48 1367.21 3588.37 1241.62C3625.08 1105.63 3661.76 993.166 3662.13 992.046C3662.48 990.966 3663.65 990.366 3664.75 990.726C3665.84 991.072 3666.43 992.246 3666.08 993.339C3665.71 994.459 3629.07 1106.83 3592.39 1242.73C3558.55 1368.07 3517.77 1539.62 3515.65 1645.03C3515.63 1646.17 3514.71 1647.07 3513.57 1647.07Z" fill="white"/>
</mask>
<g mask="url(#mask22_11_6)">
<path d="M3513.59 1647.07H3513.56C3512.4 1647.04 3511.47 1646.1 3511.52 1644.96C3513.63 1539.11 3554.48 1367.2 3588.39 1241.62C3625.09 1105.63 3661.76 993.164 3662.15 992.047C3662.49 990.955 3663.65 990.348 3664.75 990.712C3665.84 991.077 3666.44 992.241 3666.08 993.334C3665.72 994.45 3629.07 1106.82 3592.39 1242.72C3558.56 1368.07 3517.79 1539.62 3515.65 1645.03C3515.63 1646.17 3514.7 1647.07 3513.59 1647.07Z" fill="url(#paint22_linear_11_6)"/>
</g>
<path d="M3389.85 1433.59H3609.63C3626.08 1433.59 3638.38 1449.08 3635.32 1465.24C3622.19 1534.69 3595.61 1596.05 3568 1647.39C3561.84 1658.86 3549.87 1666.18 3536.86 1666.18H3465.14C3451.93 1666.18 3439.78 1658.99 3433.42 1647.39C3398.96 1584.66 3382.11 1522.41 3368.04 1461.47C3364.81 1447.45 3375.45 1433.59 3389.85 1433.59Z" fill="#7D97F4"/>
<path d="M2920.05 1078.66C2920.05 1078.66 2902.79 971.096 2955.59 936.299C2957.93 934.772 2961.05 936.52 2961.05 939.328V959.792C2961.05 964.668 2966.89 967.18 2970.46 963.831C2981.81 953.119 3002.16 936.841 3023.73 933.467C3029.47 932.556 3033.95 938.294 3031.49 943.564C3018.26 971.859 2983.61 1051.11 2984.97 1103.02L2920.05 1078.66Z" fill="#BDD0FB"/>
<path d="M2864.02 1078.61L2828.67 1643.67H3040.46V1094.39C3040.46 1078.61 3030.39 1064.6 3015.43 1059.5C2987.4 1049.93 2939.75 1037.96 2892.96 1046.28C2876.99 1049.11 2865.03 1062.45 2864.02 1078.61Z" fill="#7D97F4"/>
<path d="M2987.28 1616.02H2880.28C2867.23 1616.02 2856.8 1605.11 2857.38 1592.04L2864.56 1434.48C2865.12 1422.25 2875.2 1412.6 2887.48 1412.6H2987.28C2999.96 1412.6 3010.21 1422.88 3010.21 1435.54V1593.1C3010.21 1605.74 2999.96 1616.02 2987.28 1616.02Z" fill="#AEBFF8"/>
<path d="M3244.41 1598.51V1059.56C3244.41 1045 3234.94 1032.02 3221 1027.77C3158.65 1008.71 3104.41 1019.39 3075.93 1028.23C3063.31 1032.14 3054.69 1043.76 3054.69 1056.98V1643.66H3199.23C3224.17 1643.66 3244.41 1623.46 3244.41 1598.51Z" fill="#91B3FA"/>
<path d="M3199.87 1174.71H3098.28C3087.53 1174.71 3078.64 1166.3 3078.07 1155.55L3073.47 1069.32C3072.94 1059.62 3079.41 1051.02 3088.82 1048.58C3106.4 1044.05 3124.54 1042.4 3141.57 1042.4C3168.08 1042.4 3191.96 1046.37 3206.96 1049.63C3216.51 1051.69 3223.17 1060.29 3222.86 1070.06L3220.11 1155.14C3219.75 1166.06 3210.79 1174.71 3199.87 1174.71Z" fill="#BBD0FC"/>
<path d="M3198.8 1230.74H3101.55C3090.9 1230.74 3082.1 1222.49 3081.36 1211.89C3080.56 1200.18 3089.82 1190.25 3101.55 1190.25H3198.8C3209.82 1190.25 3218.81 1199.07 3219.04 1210.09C3219.27 1221.43 3210.14 1230.74 3198.8 1230.74Z" fill="#BBD0FC"/>
<path d="M2396.07 1061.82L2388.61 1641.13H2725.22L2700.02 1077.25C2699.29 1060.95 2688.77 1046.78 2673.44 1041.31C2631.6 1026.34 2540.49 1004.43 2417.14 1035.22C2404.9 1038.29 2396.23 1049.22 2396.07 1061.82Z" fill="#7D97F4"/>
<path d="M2598.8 1075.89L2622.3 1643.12H2822.92L2838.12 1069.55C2838.53 1053.77 2828.47 1039.51 2813.36 1034.97C2748.12 1015.4 2683.33 1013.47 2619.29 1042.71C2606.35 1048.63 2598.2 1061.68 2598.8 1075.89Z" fill="#91B3FA"/>
<path d="M2636.58 1143.88C2627.66 1143.88 2620.14 1137.02 2619.45 1128.03L2617.08 1097.18C2616.27 1087.19 2624.2 1078.65 2634.21 1078.65H2802.1C2812.12 1078.65 2819.99 1087.14 2819.26 1097.13L2817.67 1118.44C2817 1127.03 2810.12 1133.82 2801.51 1134.32L2637.6 1143.86C2637.25 1143.88 2636.92 1143.88 2636.58 1143.88Z" fill="#D0DEFD"/>
<path d="M2639.09 1197.42C2630.7 1197.42 2623.83 1190.61 2623.83 1182.13V1170.88C2623.83 1162.72 2630.26 1155.99 2638.41 1155.61L2795.43 1148.39C2795.66 1148.37 2795.89 1148.37 2796.15 1148.37C2804.54 1148.37 2811.41 1155.17 2811.41 1163.65V1175.58C2811.41 1183.79 2804.93 1190.52 2796.75 1190.87L2639.74 1197.42C2639.53 1197.42 2639.32 1197.42 2639.09 1197.42Z" fill="#D0DEFD"/>
<path d="M3687.62 1807.24H2375.97C2348.66 1807.24 2326.56 1785.11 2326.56 1757.83V1690.27C2326.56 1662.98 2348.66 1640.86 2375.97 1640.86H3687.62C3714.9 1640.86 3737.02 1662.98 3737.02 1690.27V1757.83C3737.02 1785.11 3714.9 1807.24 3687.62 1807.24Z" fill="#BDD0FB"/>
<path d="M3688.91 2395.01C3686.44 2390.52 3679.64 2392.08 3679.48 2397.22C3677.37 2477.93 3679.28 2766.2 3808.63 2882.3C3959.76 3017.94 4061.05 3041.62 4058.98 3297.39C4056.92 3550.47 4024.75 4002.55 4075.87 4130.38C4076.84 4132.79 4079.08 4134.43 4081.68 4134.59C4085.95 4134.84 4089.37 4131.04 4088.6 4126.82C4081.85 4088.15 4054.78 3920.63 4063.21 3764.17C4072.79 3585.87 4151.31 3135.6 4052.06 2802.86C3959.07 2491.05 3750.92 2507.9 3688.91 2395.01Z" fill="#91B3FA"/>
<path d="M4072.4 4195.59C4068.87 4195.23 4066.03 4192.6 4065.41 4189.11C4058.82 4151.67 4025.6 3944.36 4075.11 3829.44C4129.66 3702.79 4223.67 3581.82 4152.72 3294.6C4112.54 3131.88 4123.79 3040.78 4130.54 3008.98C4131.56 3004.16 4137.99 3003.16 4140.37 3007.46C4170.33 3061.18 4295.5 3287.43 4317.6 3358.64C4342.76 3439.64 4367.03 3599 4242.5 3681.62C4119.93 3762.93 4076.61 3945.9 4080.84 4185.68C4081.16 4202.65 4077.92 4196.16 4072.4 4195.59Z" fill="#91B3FA"/>
<path d="M4030.09 4036.04C4035.21 4036.46 4045.99 4079.74 4048.31 4074.26C4068.92 4025.59 4152.76 3743.07 4045.35 3550.13C3933.35 3348.91 3828.21 3306.61 3821.48 3199.41C3821.08 3192.86 3813.76 3191.07 3811.22 3196.97C3775.06 3280.51 3666.33 3574.07 3835.75 3749.97C4003.85 3924.5 4022.42 3987.22 4018.68 4019.54C4017.71 4027.97 4022.98 4035.46 4030.09 4036.04Z" fill="#BDD0FB"/>
<path d="M4072.21 3108.49C4072.18 3108.49 4072.18 3108.49 4072.16 3108.49C4070.93 3108.47 4069.91 3107.49 4069.86 3106.25V3106.19C4067.66 3049.45 4059.28 2993.08 4043.28 2938.89L4037.16 2918.62L4030.18 2898.62C4029.01 2895.3 4027.91 2891.94 4026.66 2888.65L4022.74 2878.82C4020.04 2872.3 4017.64 2865.66 4014.71 2859.24C4003.66 2833.27 3990.81 2808.1 3976.89 2783.58C3948.89 2734.55 3915.24 2688.89 3878.12 2646.3C3873.44 2641.02 3868.82 2635.66 3864.07 2630.43C3859.24 2625.26 3854.49 2620.01 3849.62 2614.92C3839.92 2604.62 3830.02 2594.5 3819.85 2584.65C3799.6 2564.86 3778.55 2545.74 3756.45 2527.94L3756.4 2527.9C3755.75 2527.38 3755.65 2526.42 3756.17 2525.77C3756.47 2525.4 3756.92 2525.2 3757.35 2525.2C3757.62 2525.2 3757.9 2525.28 3758.15 2525.42C3770.47 2532.87 3782.17 2541.1 3793.6 2549.75C3805.1 2558.35 3816.2 2567.42 3827.05 2576.81C3837.95 2586.14 3848.39 2595.98 3858.74 2605.91C3863.92 2610.9 3868.84 2616.1 3873.92 2621.2C3878.89 2626.36 3883.77 2631.66 3888.69 2636.87C3907.97 2658.17 3926.17 2680.47 3942.94 2703.83L3949.24 2712.58L3955.31 2721.49C3959.29 2727.49 3963.51 2733.31 3967.24 2739.46L3978.71 2757.73L3989.51 2776.41C4003.44 2801.58 4016.26 2827.38 4027.19 2854.01C4030.01 2860.62 4032.33 2867.45 4034.93 2874.14L4038.73 2884.23C4039.93 2887.62 4040.98 2891.06 4042.13 2894.48C4044.33 2901.31 4046.63 2908.13 4048.78 2914.99L4054.48 2935.79C4056.51 2942.69 4057.98 2949.73 4059.53 2956.74C4061.03 2963.77 4062.81 2970.74 4064.03 2977.81C4066.43 2991.98 4069.03 3006.1 4070.36 3020.39C4074.06 3048.86 4074.78 3077.59 4074.53 3106.18C4074.51 3107.45 4073.48 3108.49 4072.21 3108.49Z" fill="#C5D7FC"/>
<path d="M4040.22 3912.06C4040.02 3912.06 4039.82 3912.03 4039.59 3911.98C4038.24 3911.59 4037.42 3910.1 4037.74 3908.64C4051.6 3850.2 4059.07 3789.76 4052.97 3730.79C4047.43 3671.98 4025.89 3615.28 3988.71 3572.31C3979.52 3561.51 3969.61 3551.38 3958.85 3542.3C3956.25 3539.89 3953.46 3537.8 3950.71 3535.58C3947.99 3533.38 3945.24 3531.16 3942.35 3529.15L3933.78 3522.89L3924.75 3516.18C3912.86 3506.94 3901.6 3496.83 3891.12 3485.84C3880.63 3474.84 3871.27 3462.71 3862.63 3450.08C3853.99 3437.44 3846.45 3424.02 3839.91 3410.11C3833.3 3396.24 3827.75 3381.84 3823.26 3367.12C3814.32 3337.68 3808.93 3307.12 3809.3 3276.24C3809.3 3275.16 3810.05 3274.22 3811.1 3274.07C3811.2 3274.06 3811.28 3274.06 3811.37 3274.06C3812.42 3274.06 3813.32 3274.87 3813.45 3275.98L3813.47 3276.15C3817.19 3305.79 3825.08 3334.86 3835.57 3362.28C3840.94 3375.98 3847.03 3389.28 3853.89 3402.1C3860.78 3414.87 3868.52 3427.07 3876.89 3438.7C3893.76 3461.88 3913.76 3482.24 3936.13 3499.16L3953.63 3511.93C3956.68 3514.1 3959.6 3516.47 3962.52 3518.84C3965.42 3521.23 3968.41 3523.5 3971.18 3526.07C3982.64 3535.87 3993.25 3546.82 4003.09 3558.52C4022.89 3581.83 4038.44 3609.2 4049.33 3638.32C4060.41 3667.42 4066.26 3698.42 4068.38 3729.3C4069.43 3744.78 4069.5 3760.27 4068.68 3775.67C4067.9 3791.06 4066.33 3806.36 4063.96 3821.51C4061.56 3836.64 4058.59 3851.62 4055.1 3866.43C4051.58 3881.24 4047.28 3895.8 4042.66 3910.2C4042.31 3911.32 4041.29 3912.06 4040.22 3912.06Z" fill="#DCE6FD"/>
<path d="M3879.91 4024.47H4178.06C4200.38 4024.47 4217.07 4045.47 4212.93 4067.4C4195.13 4161.62 4159.07 4244.86 4121.58 4314.5C4113.22 4330.06 4097 4339.99 4079.33 4339.99H3982.05C3964.1 4339.99 3947.67 4330.23 3939.03 4314.51C3892.25 4229.4 3869.38 4144.94 3850.32 4062.3C3845.92 4043.26 3860.38 4024.47 3879.91 4024.47Z" fill="#7D97F4"/>
<defs>
<linearGradient id="paint0_linear_11_6" x1="8987.11" y1="4623.38" x2="3652.38" y2="-1134.77" gradientUnits="userSpaceOnUse">
<stop stop-color="#DAE3FE"/>
<stop offset="1" stop-color="#E9EFFD"/>
</linearGradient>
<linearGradient id="paint1_linear_11_6" x1="1268.34" y1="4095.3" x2="1810.52" y2="4095.3" gradientUnits="userSpaceOnUse">
<stop stop-color="#4F52FF"/>
<stop offset="1" stop-color="#4042E2"/>
</linearGradient>
<linearGradient id="paint2_linear_11_6" x1="6943.58" y1="1599.18" x2="5016.56" y2="923.475" gradientUnits="userSpaceOnUse">
<stop stop-color="#4F52FF"/>
<stop offset="1" stop-color="#4042E2"/>
</linearGradient>
<linearGradient id="paint3_linear_11_6" x1="3498.64" y1="3380.25" x2="3993" y2="3380.25" gradientUnits="userSpaceOnUse">
<stop stop-color="#FEBBBA"/>
<stop offset="1" stop-color="#FF928E"/>
</linearGradient>
<linearGradient id="paint4_linear_11_6" x1="3913.07" y1="2965.47" x2="3732.09" y2="4099.63" gradientUnits="userSpaceOnUse">
<stop stop-color="#09005D"/>
<stop offset="1" stop-color="#1A0F91"/>
</linearGradient>
<linearGradient id="paint5_linear_11_6" x1="3022.73" y1="3409.21" x2="4076.82" y2="3409.21" gradientUnits="userSpaceOnUse">
<stop stop-color="#FEBBBA"/>
<stop offset="1" stop-color="#FF928E"/>
</linearGradient>
<linearGradient id="paint6_linear_11_6" x1="6552.99" y1="478.27" x2="6051.45" y2="1201.07" gradientUnits="userSpaceOnUse">
<stop stop-color="#FF928E"/>
<stop offset="1" stop-color="#FE7062"/>
</linearGradient>
<linearGradient id="paint7_linear_11_6" x1="2818.81" y1="3178.11" x2="2664.73" y2="4143.71" gradientUnits="userSpaceOnUse">
<stop stop-color="#09005D"/>
<stop offset="1" stop-color="#1A0F91"/>
</linearGradient>
<linearGradient id="paint8_linear_11_6" x1="5939.28" y1="3.3182" x2="5532.63" y2="1076.59" gradientUnits="userSpaceOnUse">
<stop stop-color="#09005D"/>
<stop offset="1" stop-color="#1A0F91"/>
</linearGradient>
<linearGradient id="paint9_linear_11_6" x1="7344.15" y1="615.443" x2="6331.93" y2="1128.88" gradientUnits="userSpaceOnUse">
<stop stop-color="#FF928E"/>
<stop offset="1" stop-color="#FE7062"/>
</linearGradient>
<linearGradient id="paint10_linear_11_6" x1="4713.48" y1="1758.36" x2="4723.27" y2="1255.56" gradientUnits="userSpaceOnUse">
<stop stop-color="#FEBBBA"/>
<stop offset="1" stop-color="#FF928E"/>
</linearGradient>
<linearGradient id="paint11_linear_11_6" x1="4330.12" y1="1218.26" x2="4927.59" y2="1127.2" gradientUnits="userSpaceOnUse">
<stop stop-color="#FEBBBA"/>
<stop offset="1" stop-color="#FF928E"/>
</linearGradient>
<linearGradient id="paint12_linear_11_6" x1="4383.38" y1="609.557" x2="4923.96" y2="1472.14" gradientUnits="userSpaceOnUse">
<stop stop-color="#09005D"/>
<stop offset="1" stop-color="#1A0F91"/>
</linearGradient>
<linearGradient id="paint13_linear_11_6" x1="4314.5" y1="1172.18" x2="4910.92" y2="1081.28" gradientUnits="userSpaceOnUse">
<stop stop-color="#FEBBBA"/>
<stop offset="1" stop-color="#FF928E"/>
</linearGradient>
<linearGradient id="paint14_linear_11_6" x1="5437.1" y1="2103.4" x2="6607.92" y2="2309.29" gradientUnits="userSpaceOnUse">
<stop stop-color="#FEBBBA"/>
<stop offset="1" stop-color="#FF928E"/>
</linearGradient>
<linearGradient id="paint15_linear_11_6" x1="5286.38" y1="2231.03" x2="4594.4" y2="2457.99" gradientUnits="userSpaceOnUse">
<stop stop-color="#09005D"/>
<stop offset="1" stop-color="#1A0F91"/>
</linearGradient>
<linearGradient id="paint16_linear_11_6" x1="3910.49" y1="2088.22" x2="3461.04" y2="2563.26" gradientUnits="userSpaceOnUse">
<stop stop-color="#09005D"/>
<stop offset="1" stop-color="#1A0F91"/>
</linearGradient>
<linearGradient id="paint17_linear_11_6" x1="5266.78" y1="3934.2" x2="5091.84" y2="2833.79" gradientUnits="userSpaceOnUse">
<stop stop-color="#4F52FF"/>
<stop offset="1" stop-color="#4042E2"/>
</linearGradient>
<linearGradient id="paint18_linear_11_6" x1="5510.67" y1="3880.01" x2="5316.93" y2="2661.29" gradientUnits="userSpaceOnUse">
<stop stop-color="#4F52FF"/>
<stop offset="1" stop-color="#4042E2"/>
</linearGradient>
<linearGradient id="paint19_linear_11_6" x1="5143.32" y1="3576.35" x2="6127.37" y2="2066.47" gradientUnits="userSpaceOnUse">
<stop stop-color="#4F52FF"/>
<stop offset="1" stop-color="#4042E2"/>
</linearGradient>
<linearGradient id="paint20_linear_11_6" x1="6311.45" y1="-1890.28" x2="6404.89" y2="-1890.28" gradientUnits="userSpaceOnUse">
<stop stop-color="#DAE3FE"/>
<stop offset="1" stop-color="#E9EFFD"/>
</linearGradient>
<linearGradient id="paint21_linear_11_6" x1="6777.32" y1="-2475.66" x2="6916.76" y2="-2475.66" gradientUnits="userSpaceOnUse">
<stop stop-color="#DAE3FE"/>
<stop offset="1" stop-color="#E9EFFD"/>
</linearGradient>
<linearGradient id="paint22_linear_11_6" x1="6392.01" y1="-1657.09" x2="6673.58" y2="-1657.09" gradientUnits="userSpaceOnUse">
<stop stop-color="#DAE3FE"/>
<stop offset="1" stop-color="#E9EFFD"/>
</linearGradient>
</defs>
</svg>
